<svg width="22" height="22" viewBox="0 0 22 22" fill="none" xmlns="http://www.w3.org/2000/svg">
<path d="M15.667 12.3947C18.0599 12.3947 20 14.3348 20 16.7277C20 19.1209 18.0599 21.0606 15.667 21.0606C13.2742 21.0606 11.3341 19.1209 11.3341 16.7277C11.3341 14.3348 13.2742 12.3947 15.667 12.3947ZM13.2946 1.14144C13.3133 1.14143 13.3314 1.14754 13.3462 1.15885C13.3611 1.17015 13.3718 1.18601 13.3767 1.204L13.3797 1.22655V5.91782C13.3798 5.9364 13.386 5.95445 13.3972 5.9692C13.4085 5.98395 13.4244 5.9946 13.4423 5.99953L13.4648 6.00293H18.6148C18.6334 6.00327 18.6514 6.0097 18.666 6.02123C18.6806 6.03275 18.691 6.04875 18.6957 6.06676L18.6987 6.08932L18.5965 12.4726C17.6945 11.758 16.577 11.3699 15.4262 11.3717C12.6014 11.3717 10.3111 13.662 10.3111 16.4868C10.3111 17.6388 10.6915 18.7014 11.3337 19.5563H2.94607C2.74083 19.5573 2.54276 19.4809 2.39138 19.3423C2.24001 19.2037 2.14647 19.0131 2.12944 18.8086L2.12731 18.7452L2.12688 2.16447C2.12688 1.73424 2.65031 1.1891 3.09288 1.14442L3.14991 1.14144H13.2946ZM15.4887 13.9607L15.4632 13.9837L13.1606 16.4702C13.14 16.4923 13.1257 16.5195 13.1192 16.549C13.1126 16.5785 13.114 16.6092 13.1232 16.638C13.1325 16.6668 13.1492 16.6925 13.1717 16.7127C13.1942 16.7329 13.2216 16.7467 13.2512 16.7528L13.2852 16.7562H15.0491V19.0201C15.0491 19.07 15.0665 19.1184 15.0985 19.1568C15.1305 19.1951 15.1749 19.221 15.2241 19.2299L15.2623 19.2333H15.9134C15.9632 19.2333 16.0115 19.2159 16.0497 19.184C16.088 19.1521 16.1138 19.1078 16.1228 19.0588L16.1262 19.0205V16.7557L17.8905 16.7562C17.9207 16.7561 17.9503 16.7481 17.9764 16.7329C18.0024 16.7177 18.0239 16.6958 18.0387 16.6695C18.0535 16.6432 18.0611 16.6135 18.0606 16.5833C18.0602 16.5532 18.0517 16.5237 18.0361 16.4979L18.0157 16.4702L15.713 13.9837L15.7036 13.9743C15.6749 13.9476 15.6378 13.9317 15.5986 13.9292C15.5595 13.9268 15.5206 13.9379 15.4887 13.9607ZM10.7422 10.6185H5.35766L5.25553 10.6253C5.06658 10.6516 4.89465 10.7486 4.77437 10.8967C4.6541 11.0448 4.59443 11.233 4.60738 11.4233C4.62033 11.6136 4.70494 11.792 4.84417 11.9224C4.9834 12.0528 5.16689 12.1257 5.35766 12.1262H10.7422L10.8443 12.1194C11.0332 12.093 11.2052 11.996 11.3254 11.8479C11.4457 11.6998 11.5054 11.5117 11.4924 11.3213C11.4795 11.131 11.3949 10.9526 11.2556 10.8222C11.1164 10.6918 10.9329 10.619 10.7422 10.6185ZM14.5113 7.38767H5.35766L5.25553 7.39448C5.06658 7.42084 4.89465 7.51783 4.77437 7.66592C4.6541 7.81401 4.59443 8.00218 4.60738 8.19252C4.62033 8.38285 4.70494 8.56121 4.84417 8.69164C4.9834 8.82207 5.16689 8.89488 5.35766 8.8954H14.5113L14.6134 8.88859C14.8023 8.86223 14.9743 8.76523 15.0945 8.61715C15.2148 8.46906 15.2745 8.28089 15.2615 8.09055C15.2486 7.90021 15.164 7.72186 15.0247 7.59143C14.8855 7.461 14.702 7.38819 14.5113 7.38767ZM14.227 1.29379C14.2349 1.28588 14.2443 1.2796 14.2546 1.27532C14.2649 1.27103 14.276 1.26883 14.2872 1.26883C14.2984 1.26883 14.3095 1.27103 14.3198 1.27532C14.3301 1.2796 14.3395 1.28588 14.3474 1.29379L18.1318 5.04289C18.1438 5.05474 18.152 5.06987 18.1553 5.08637C18.1587 5.10286 18.157 5.11998 18.1507 5.13556C18.1443 5.15114 18.1334 5.16448 18.1195 5.17389C18.1055 5.1833 18.0891 5.18836 18.0723 5.18843H14.2023V1.35422C14.2023 1.33174 14.2112 1.31017 14.227 1.29422V1.29379Z" fill="#C8C9CC"/>
</svg>
