<svg width="100" height="100" viewBox="0 0 100 100" fill="none" xmlns="http://www.w3.org/2000/svg">
<path fill-rule="evenodd" clip-rule="evenodd" d="M11 16C11 11.5817 14.5817 8 19 8H65C69.4183 8 73 11.5817 73 16V79C73 80.4574 72.6103 81.8238 71.9294 83.0006C69.9558 83.0348 68.3307 84.4983 68.0447 86.4002C67.1062 86.7868 66.078 87 65 87H64C64 84.7909 62.2091 83 60 83C57.7909 83 56 84.7909 56 87H52C52 84.7909 50.2091 83 48 83C45.7909 83 44 84.7909 44 87H40C40 84.7909 38.2091 83 36 83C33.7909 83 32 84.7909 32 87H28C28 84.7909 26.2091 83 24 83C21.7909 83 20 84.7909 20 87H19C17.922 87 16.8938 86.7868 15.9553 86.4002C15.6693 84.4983 14.0442 83.0348 12.0706 83.0006C11.3897 81.8238 11 80.4574 11 79V16Z" fill="url(#paint0_linear_1931_7805)"/>
<path fill-rule="evenodd" clip-rule="evenodd" d="M66.5 8C62.9101 8 60 10.9101 60 14.5V65.5C60 68.9257 62.6501 71.7324 66.012 71.982L66 72H66.5H79.5L74 69L73 61.5V14.5C73 10.9101 70.0899 8 66.5 8Z" fill="url(#paint1_linear_1931_7805)"/>
<rect x="73" y="8" width="13" height="64" rx="6.5" fill="url(#paint2_linear_1931_7805)"/>
<path fill-rule="evenodd" clip-rule="evenodd" d="M31 20C31 21.4806 30.1956 22.7733 29 23.4649V27H33C34.1046 27 35 27.8954 35 29V31H19V29C19 27.8954 19.8954 27 21 27H25V23.4649C23.8044 22.7733 23 21.4806 23 20C23 17.7909 24.7909 16 27 16C29.2091 16 31 17.7909 31 20Z" fill="white" fill-opacity="0.8"/>
<rect opacity="0.6" x="18" y="35" width="30" height="2" fill="white"/>
<rect opacity="0.4" x="18" y="41" width="26" height="2" fill="white"/>
<rect opacity="0.4" x="18" y="47" width="22" height="2" fill="white"/>
<circle cx="62" cy="76" r="12" fill="url(#paint3_linear_1931_7805)"/>
<rect x="57.5713" y="70.0013" width="14.2276" height="1.77845" transform="rotate(45 57.5713 70.0013)" fill="#355DB4"/>
<rect x="56.682" y="79.7828" width="14.2276" height="1.77845" transform="rotate(-45 56.682 79.7828)" fill="#355DB4"/>
<defs>
<linearGradient id="paint0_linear_1931_7805" x1="42" y1="8" x2="42" y2="87" gradientUnits="userSpaceOnUse">
<stop offset="0.23543" stop-color="#99B4EE"/>
<stop offset="1" stop-color="#355DB4"/>
</linearGradient>
<linearGradient id="paint1_linear_1931_7805" x1="70" y1="72" x2="70" y2="8" gradientUnits="userSpaceOnUse">
<stop offset="0.364583" stop-color="#7C9DE4"/>
<stop offset="1" stop-color="#355DB4"/>
</linearGradient>
<linearGradient id="paint2_linear_1931_7805" x1="79.6667" y1="72" x2="79.6667" y2="8" gradientUnits="userSpaceOnUse">
<stop offset="0.0240055" stop-color="#355DB4" stop-opacity="0.4"/>
<stop offset="1" stop-color="white" stop-opacity="0"/>
</linearGradient>
<linearGradient id="paint3_linear_1931_7805" x1="62" y1="64" x2="62" y2="88" gradientUnits="userSpaceOnUse">
<stop offset="0.671875" stop-color="white"/>
<stop offset="1" stop-color="#C1D2F8"/>
</linearGradient>
</defs>
</svg>
