<svg width="22" height="22" viewBox="0 0 22 22" fill="none" xmlns="http://www.w3.org/2000/svg">
<path d="M10.4889 1.36113C10.7877 1.12208 11.2123 1.12208 11.5111 1.36113L21.5111 9.36111C21.8639 9.64339 21.9211 10.1583 21.6388 10.5111C21.3566 10.864 20.8417 10.9212 20.4888 10.6389L19.3181 9.70233V20C19.3181 20.4518 18.9518 20.8182 18.5 20.8182H3.5C3.04813 20.8182 2.68182 20.4518 2.68182 20V9.70233L1.51112 10.6389C1.15827 10.9212 0.643392 10.864 0.361112 10.5111C0.0788322 10.1583 0.13604 9.64339 0.48889 9.36111L10.4889 1.36113ZM8.49999 12.6819C8.04812 12.6819 7.68181 13.0482 7.68181 13.5V19.1818H14.3182V13.5C14.3182 13.0482 13.9518 12.6819 13.5 12.6819H8.49999Z" fill="#C8C9CC"/>
</svg>
