<svg width="168" height="106" viewBox="0 0 168 106" fill="none" xmlns="http://www.w3.org/2000/svg">
<path d="M0 2C0 0.895429 0.895431 0 2 0H166C167.105 0 168 0.895431 168 2V104C168 105.105 167.105 106 166 106H2C0.895433 106 0 105.105 0 104V2Z" fill="#F2F2F7"/>
<path fill-rule="evenodd" clip-rule="evenodd" d="M1.23443 105.848L1.42595 105.386C1.60212 105.459 1.79569 105.5 2 105.5H4.5625V106H2C1.72882 106 1.47024 105.946 1.23443 105.848ZM163.438 106V105.5H166C166.204 105.5 166.398 105.459 166.574 105.386L166.766 105.848C166.53 105.946 166.271 106 166 106H163.438ZM168 4.55H167.5V2C167.5 1.79569 167.459 1.60212 167.386 1.42595L167.848 1.23442C167.946 1.47024 168 1.72882 168 2V4.55ZM4.5625 0H2C1.72882 0 1.47024 0.0539722 1.23442 0.151761L1.42595 0.613624C1.60212 0.54057 1.79569 0.5 2 0.5H4.5625V0ZM0 101.45H0.5V104C0.5 104.204 0.54057 104.398 0.613624 104.574L0.151761 104.766C0.0539725 104.53 0 104.271 0 104V101.45ZM0 96.35H0.5V91.25H0V96.35ZM0 86.15H0.5V81.05H0V86.15ZM0 75.95H0.5V70.85H0V75.95ZM0 65.75H0.5V60.65H0V65.75ZM0 55.55H0.5V50.45H0V55.55ZM0 45.35H0.5V40.25H0V45.35ZM0 35.15H0.5V30.05H0V35.15ZM0 24.95H0.5V19.85H0V24.95ZM0 14.75H0.5V9.65002H0V14.75ZM0 4.55001H0.5V2C0.5 1.79569 0.54057 1.60212 0.613624 1.42595L0.151761 1.23442C0.0539723 1.47024 0 1.72882 0 2V4.55001ZM9.6875 0V0.5H14.8125V0H9.6875ZM19.9375 0V0.5H25.0625V0H19.9375ZM30.1875 0V0.5H35.3125V0H30.1875ZM40.4375 0V0.5H45.5625V0H40.4375ZM50.6875 0V0.5H55.8125V0H50.6875ZM60.9375 0V0.5H66.0625V0H60.9375ZM71.1875 0V0.5H76.3125V0H71.1875ZM81.4375 0V0.5H86.5625V0H81.4375ZM91.6875 0V0.5H96.8125V0H91.6875ZM101.938 0V0.5H107.062V0H101.938ZM112.188 0V0.5H117.312V0H112.188ZM122.438 0V0.5H127.562V0H122.438ZM132.688 0V0.5H137.812V0H132.688ZM142.938 0V0.5H148.062V0H142.938ZM153.188 0V0.5H158.312V0H153.188ZM163.438 0V0.5H166C166.204 0.5 166.398 0.54057 166.574 0.613624L166.766 0.151762C166.53 0.0539728 166.271 0 166 0H163.438ZM168 9.65H167.5V14.75H168V9.65ZM168 19.85H167.5V24.95H168V19.85ZM168 30.05H167.5V35.15H168V30.05ZM168 40.25H167.5V45.35H168V40.25ZM168 50.45H167.5V55.55H168V50.45ZM168 60.65H167.5V65.75H168V60.65ZM168 70.85H167.5V75.95H168V70.85ZM168 81.05H167.5V86.15H168V81.05ZM168 91.25H167.5V96.35H168V91.25ZM168 101.45H167.5V104C167.5 104.204 167.459 104.398 167.386 104.574L167.848 104.766C167.946 104.53 168 104.271 168 104V101.45ZM158.312 106V105.5H153.188V106H158.312ZM148.062 106V105.5H142.938V106H148.062ZM137.812 106V105.5H132.688V106H137.812ZM127.562 106V105.5H122.438V106H127.562ZM117.312 106V105.5H112.188V106H117.312ZM107.062 106V105.5H101.938V106H107.062ZM96.8125 106V105.5H91.6875V106H96.8125ZM86.5625 106V105.5H81.4375V106H86.5625ZM76.3125 106V105.5H71.1875V106H76.3125ZM66.0625 106V105.5H60.9375V106H66.0625ZM55.8125 106V105.5H50.6875V106H55.8125ZM45.5625 106V105.5H40.4375V106H45.5625ZM35.3125 106V105.5H30.1875V106H35.3125ZM25.0625 106V105.5H19.9375V106H25.0625ZM14.8125 106V105.5H9.6875V106H14.8125Z" fill="#999999"/>
<g opacity="0.1">
<rect x="4" y="1" width="155.4" height="98" rx="2" fill="#F0F9EE"/>
<path d="M45.2689 8.37405V9.45405H43.1209V12.274H43.5529V11.896H45.2689V13.942H45.7129V11.896H47.4349V12.274H47.8669V9.45405H45.7129V8.37405H45.2689ZM43.5529 11.476V9.87405H45.2689V11.476H43.5529ZM45.7129 11.476V9.87405H47.4349V11.476H45.7129ZM50.0029 9.62805V10.018H51.2689V10.882H50.1949V11.266H51.2689V12.22H49.8409V12.616H53.1469V12.22H51.7129V11.266H52.7869V10.882H51.7129V10.018H52.9729V9.62805H50.0029ZM53.9569 8.67405H49.0249V13.888H49.4629V13.63H53.5189V13.888H53.9569V8.67405ZM49.4629 13.222V9.08205H53.5189V13.222H49.4629ZM52.4209 11.392L52.0789 11.506C52.2229 11.704 52.3549 11.938 52.4749 12.208L52.8109 12.052C52.7029 11.818 52.5709 11.596 52.4209 11.392ZM57.7069 8.41005H57.2689C57.2689 8.63805 57.2629 8.95605 57.2569 9.36405C57.2029 11.092 56.3509 12.466 54.7009 13.48L54.9649 13.864C56.2969 13.006 57.1489 11.926 57.5089 10.618C57.9349 11.974 58.7629 13.054 59.9869 13.858L60.2689 13.48C58.8709 12.622 58.0009 11.374 57.6649 9.74205C57.6889 9.37005 57.7069 8.92605 57.7069 8.41005ZM61.8229 11.65H63.7849C63.8449 11.86 63.9109 12.058 63.9889 12.238C64.2169 12.754 64.4749 13.144 64.7749 13.42C65.0749 13.69 65.3629 13.828 65.6389 13.834C65.7769 13.828 65.8969 13.75 65.9929 13.6C66.0949 13.456 66.1849 13.126 66.2569 12.622L65.8729 12.412C65.8369 12.82 65.7889 13.084 65.7289 13.204C65.6749 13.312 65.6149 13.372 65.5489 13.372C65.3749 13.366 65.1829 13.27 64.9729 13.084C64.7569 12.88 64.5469 12.55 64.3489 12.1C64.2889 11.962 64.2409 11.812 64.1989 11.65H66.0589V11.23H64.1029C64.0549 10.978 64.0129 10.702 63.9889 10.39H65.6809V8.62605H61.3909V13.18C61.3909 13.276 61.3429 13.348 61.2589 13.396L61.3729 13.798C62.2249 13.63 62.9389 13.45 63.5029 13.27L63.4009 12.856C62.8789 13.036 62.3509 13.186 61.8229 13.294V11.65ZM63.5569 10.39C63.5869 10.684 63.6289 10.966 63.6889 11.23H61.8229V10.39H63.5569ZM65.2609 9.04005V9.98205H61.8229V9.04005H65.2609ZM67.1149 9.61605V10.036H68.2069V11.482H66.8149V11.902H72.1669V11.482H70.7749V10.036H71.8729V9.61605H70.7749V8.39205H70.3369V9.61605H68.6449V8.36805H68.2069V9.61605H67.1149ZM68.6449 11.482V10.036H70.3369V11.482H68.6449ZM68.6449 12.112C68.1529 12.64 67.5409 13.108 66.8149 13.504L67.1149 13.888C67.8469 13.468 68.4649 12.97 68.9689 12.406L68.6449 12.112ZM70.3849 12.124L70.0729 12.424C70.8169 12.94 71.3989 13.426 71.8249 13.882L72.1609 13.54C71.6809 13.072 71.0929 12.598 70.3849 12.124ZM77.9509 8.80605H75.6589V13.72H76.0729V13.186H77.5309V13.66H77.9509V8.80605ZM76.0729 12.778V9.20805H77.5309V12.778H76.0729ZM72.9169 10.048V10.45H73.9669V10.492C73.7209 11.152 73.3189 11.746 72.7609 12.274L72.9409 12.742C73.3669 12.28 73.7089 11.764 73.9669 11.194V13.858H74.3869V11.152C74.6089 11.404 74.8729 11.746 75.1849 12.172L75.4369 11.8C75.0829 11.404 74.7349 11.056 74.3869 10.75V10.45H75.4129V10.048H74.3869V9.10005C74.7229 9.02805 75.0409 8.93205 75.3529 8.81805L75.1489 8.45805C74.5489 8.68605 73.8049 8.83605 72.9109 8.90805L73.0489 9.29205C73.3609 9.26805 73.6669 9.23205 73.9669 9.18405V10.048H72.9169ZM80.0029 9.62805V10.018H81.2689V10.882H80.1949V11.266H81.2689V12.22H79.8409V12.616H83.1469V12.22H81.7129V11.266H82.7869V10.882H81.7129V10.018H82.9729V9.62805H80.0029ZM83.9569 8.67405H79.0249V13.888H79.4629V13.63H83.5189V13.888H83.9569V8.67405ZM79.4629 13.222V9.08205H83.5189V13.222H79.4629ZM82.4209 11.392L82.0789 11.506C82.2229 11.704 82.3549 11.938 82.4749 12.208L82.8109 12.052C82.7029 11.818 82.5709 11.596 82.4209 11.392ZM84.8389 9.57405V9.98805H85.7149C85.5169 10.738 85.1869 11.404 84.7249 11.986L84.9109 12.454C85.2469 11.962 85.5229 11.422 85.7329 10.822V13.87H86.1649V10.708C86.3329 10.942 86.5309 11.248 86.7589 11.626L87.0109 11.254C86.7229 10.9 86.4409 10.582 86.1649 10.294V9.98805H86.9089V9.57405H86.1649V8.40405H85.7329V9.57405H84.8389ZM86.6269 13.606L86.9809 13.924C87.2629 13.492 87.4549 13.048 87.5569 12.58C87.6649 12.136 87.7189 11.584 87.7189 10.924V9.05805H88.7869V13.234C88.7869 13.582 88.9789 13.756 89.3629 13.756H89.6089C89.8009 13.756 89.9449 13.72 90.0409 13.654C90.1369 13.57 90.1969 13.426 90.2209 13.21C90.2449 12.982 90.2629 12.658 90.2629 12.226L89.8669 12.1C89.8669 12.676 89.8489 13.018 89.8249 13.138C89.8129 13.222 89.7829 13.276 89.7349 13.312C89.6929 13.336 89.6389 13.348 89.5669 13.348H89.3629C89.2669 13.348 89.2249 13.294 89.2249 13.192V8.65005H87.2869V10.924C87.2869 11.542 87.2449 12.034 87.1669 12.4C87.0649 12.826 86.8849 13.228 86.6269 13.606ZM91.0309 8.81805V9.23205H93.2029V8.81805H91.0309ZM90.7969 10.438V10.858H91.6309C91.3309 11.95 91.0909 12.616 90.9109 12.862C90.8869 12.874 90.8569 12.886 90.8149 12.898L90.9169 13.306C91.6609 13.174 92.3569 12.994 92.9929 12.766C93.0529 12.904 93.1129 13.048 93.1729 13.204L93.5449 13.012C93.2929 12.406 93.0229 11.848 92.7349 11.332L92.3689 11.512C92.5249 11.788 92.6749 12.082 92.8309 12.406C92.3629 12.58 91.8889 12.718 91.4149 12.814C91.5949 12.418 91.8049 11.77 92.0449 10.858H93.4309V10.438H90.7969ZM94.3309 8.41605V9.62805H93.5209V10.048H94.3309V10.12C94.3189 11.734 93.9349 12.904 93.1849 13.63L93.5089 13.912C94.3249 13.114 94.7449 11.848 94.7629 10.12V10.048H95.6509C95.6389 11.662 95.6149 12.628 95.5789 12.946C95.5309 13.288 95.3569 13.462 95.0629 13.462C94.9009 13.462 94.7089 13.45 94.4929 13.438L94.5889 13.822C94.8409 13.834 95.0149 13.84 95.1169 13.84C95.6329 13.84 95.9269 13.594 95.9869 13.108C96.0409 12.664 96.0709 11.506 96.0709 9.62805H94.7629V8.41605H94.3309ZM97.0189 9.17205V9.59205H98.2189C97.9249 10.132 97.6009 10.588 97.2529 10.948L97.3489 11.344H99.3469V12.226H96.9289V12.646H99.3469V13.936H99.7849V12.646H102.059V12.226H99.7849V11.344H101.633V10.948H99.7849V10.066H99.3469V10.948H97.7989C98.1229 10.552 98.4169 10.102 98.6869 9.59205H101.957V9.17205H98.8969C98.9989 8.94405 99.1009 8.71005 99.1969 8.46405L98.7649 8.36805C98.6569 8.65005 98.5429 8.92005 98.4289 9.17205H97.0189ZM105.041 8.78205V9.20805H107.915V8.78205H105.041ZM104.879 10.306V10.732H106.769V13.246C106.769 13.402 106.667 13.48 106.475 13.48C106.211 13.48 105.941 13.468 105.653 13.45L105.743 13.876H106.625C107.009 13.876 107.207 13.702 107.207 13.354V10.732H108.179V10.306H104.879ZM104.093 8.45205C103.811 9.01605 103.361 9.52005 102.737 9.96405L102.863 10.396C103.607 9.88605 104.147 9.29805 104.483 8.63205L104.093 8.45205ZM104.375 9.82005C104.039 10.486 103.505 11.074 102.773 11.59L102.899 12.022C103.187 11.824 103.445 11.614 103.685 11.398V13.9H104.111V10.96C104.375 10.66 104.591 10.336 104.765 10L104.375 9.82005ZM111.305 9.28005V11.35H112.439V11.464C112.427 11.848 112.373 12.178 112.265 12.466C112.025 12.22 111.815 11.926 111.623 11.59L111.299 11.818C111.527 12.208 111.779 12.544 112.067 12.832C111.845 13.12 111.479 13.354 110.963 13.534L111.197 13.9C111.725 13.708 112.121 13.45 112.385 13.114C112.907 13.54 113.519 13.78 114.221 13.84L114.329 13.438C113.669 13.39 113.087 13.162 112.595 12.766C112.757 12.418 112.841 11.98 112.853 11.464V11.35H114.011V9.28005H112.853V8.40405H112.439V9.28005H111.305ZM113.603 10.954H112.853V9.67005H113.603V10.954ZM112.439 10.954H111.707V9.67005H112.439V10.954ZM110.339 9.08205L110.063 11.152H109.361L109.601 9.51405L109.199 9.49605L108.917 11.542H110.513C110.513 12.454 110.483 13.006 110.423 13.198C110.363 13.384 110.177 13.48 109.877 13.48C109.781 13.48 109.619 13.468 109.385 13.444L109.499 13.828C109.661 13.84 109.817 13.846 109.967 13.846C110.363 13.846 110.621 13.738 110.741 13.534C110.861 13.318 110.927 12.526 110.927 11.152H110.483L110.771 8.68005H108.821V9.08205H110.339ZM110.219 12.07C109.781 12.202 109.271 12.304 108.689 12.382L108.743 12.796C109.295 12.712 109.787 12.604 110.219 12.46V12.07ZM118.475 9.10605V13.27H117.635V10.096H117.215V13.27H116.603V13.696H120.275V13.27H118.913V11.194H120.071V10.792H118.913V9.10605H120.155V8.68005H116.789V9.10605H118.475ZM115.487 8.45805L115.187 8.74005C115.607 9.07005 115.937 9.38205 116.183 9.68205L116.477 9.38205C116.207 9.07605 115.877 8.77005 115.487 8.45805ZM114.755 10.234V10.648H115.625V12.982C115.625 13.078 115.583 13.162 115.499 13.234L115.667 13.624C116.057 13.354 116.423 13.048 116.771 12.712L116.657 12.25C116.435 12.466 116.231 12.658 116.039 12.826V10.234H114.755Z" fill="black"/>
<path d="M10.142 19.114V20.734H13.658V19.114H10.142ZM13.214 20.344H10.586V19.504H13.214V20.344ZM10.574 21.664L10.292 22.756H13.304C13.268 23.296 13.214 23.632 13.142 23.764C13.064 23.896 12.866 23.962 12.542 23.962C12.296 23.962 12.014 23.95 11.696 23.926L11.84 24.322C12.074 24.346 12.338 24.358 12.638 24.358C13.046 24.358 13.322 24.268 13.466 24.088C13.61 23.902 13.706 23.326 13.742 22.366H10.808L11.012 21.664H14.594V21.25H9.19998V21.664H10.574ZM16.58 18.964V20.566H15.944V19.084H15.53V21.268C15.524 22.6 15.374 23.572 15.086 24.172L15.404 24.448C15.674 23.938 15.842 23.2 15.914 22.234H16.64V24.316H17.06V21.832H15.932C15.938 21.652 15.944 21.466 15.944 21.268V20.968H17.33V20.566H16.994V18.964H16.58ZM17.612 19.432V21.97H18.5C18.344 22.21 18.098 22.402 17.756 22.558L17.93 22.834H17.336V23.248H19.172V24.382H19.592V23.248H20.63V22.834H19.592V22.21H19.172V22.834H18.002C18.398 22.66 18.686 22.42 18.866 22.114L18.938 21.97H20.324V19.432H18.98C19.058 19.264 19.118 19.09 19.166 18.904L18.734 18.85C18.692 19.048 18.626 19.24 18.542 19.432H17.612ZM19.928 21.592H19.064C19.112 21.382 19.148 21.142 19.16 20.878H19.928V21.592ZM18.662 21.592H18.002V20.878H18.77C18.758 21.142 18.722 21.376 18.662 21.592ZM18.002 20.512V19.816H18.776V20.512H18.002ZM19.166 19.816H19.928V20.512H19.166V19.816ZM22.142 19.114V20.734H25.658V19.114H22.142ZM25.214 20.344H22.586V19.504H25.214V20.344ZM22.574 21.664L22.292 22.756H25.304C25.268 23.296 25.214 23.632 25.142 23.764C25.064 23.896 24.866 23.962 24.542 23.962C24.296 23.962 24.014 23.95 23.696 23.926L23.84 24.322C24.074 24.346 24.338 24.358 24.638 24.358C25.046 24.358 25.322 24.268 25.466 24.088C25.61 23.902 25.706 23.326 25.742 22.366H22.808L23.012 21.664H26.594V21.25H21.2V21.664H22.574ZM29.168 21.004H28.064C28.22 20.584 28.334 20.134 28.418 19.654H29.324V19.234H27.278V19.654H28.01C27.866 20.548 27.566 21.346 27.11 22.042L27.326 22.39C27.47 22.186 27.602 21.976 27.722 21.76V24.202H28.124V23.746H28.772V24.088H29.168V21.004ZM28.124 23.356V21.4H28.772V23.356H28.124ZM29.978 19.978L29.654 21.922H32.078C32.078 22.882 32.03 23.464 31.934 23.668C31.844 23.86 31.568 23.962 31.106 23.962C30.998 23.962 30.812 23.95 30.548 23.926L30.668 24.346C30.86 24.358 31.04 24.364 31.208 24.364C31.736 24.364 32.078 24.25 32.246 24.034C32.402 23.806 32.486 22.972 32.486 21.52H31.85L32.18 19.15H29.6V19.558H31.712L31.412 21.52H30.14L30.404 20.008L29.978 19.978ZM29.468 22.684V23.092H31.664V22.684H29.468ZM37.0581 20.698L38.1561 22.156L36.9261 23.8H37.4961L38.4261 22.51L39.3501 23.8H39.9201L38.6901 22.156L39.7881 20.698H39.2241L38.4261 21.802L37.6221 20.698H37.0581ZM40.1108 20.698L41.2088 22.156L39.9788 23.8H40.5488L41.4788 22.51L42.4028 23.8H42.9728L41.7428 22.156L42.8408 20.698H42.2768L41.4788 21.802L40.6748 20.698H40.1108ZM43.1635 20.698L44.2615 22.156L43.0315 23.8H43.6015L44.5315 22.51L45.4555 23.8H46.0255L44.7955 22.156L45.8935 20.698H45.3295L44.5315 21.802L43.7275 20.698H43.1635ZM46.2163 20.698L47.3143 22.156L46.0843 23.8H46.6543L47.5843 22.51L48.5083 23.8H49.0783L47.8483 22.156L48.9463 20.698H48.3823L47.5843 21.802L46.7803 20.698H46.2163ZM49.269 20.698L50.367 22.156L49.137 23.8H49.707L50.637 22.51L51.561 23.8H52.131L50.901 22.156L51.999 20.698H51.435L50.637 21.802L49.833 20.698H49.269ZM52.3217 20.698L53.4197 22.156L52.1897 23.8H52.7597L53.6897 22.51L54.6137 23.8H55.1837L53.9537 22.156L55.0517 20.698H54.4877L53.6897 21.802L52.8857 20.698H52.3217Z" fill="black"/>
<path d="M11.6795 34.5493V32.5453H10.1435V31.8493C10.7675 31.7593 11.2955 31.5973 11.7275 31.3633L11.4395 31.0333C11.0315 31.2793 10.4735 31.4473 9.75946 31.5313V34.0213C9.74746 34.8613 9.57946 35.5813 9.25546 36.1933L9.55546 36.5053C9.85546 35.9473 10.0415 35.2933 10.1135 34.5493H11.6795ZM10.1435 32.9653H11.2835V34.1533H10.1375C10.1375 34.1053 10.1435 34.0633 10.1435 34.0213V32.9653ZM12.5855 33.2833H13.6715V36.5173H14.0975V33.2833H14.7755V32.8693H12.5855L12.5795 31.8193C13.3115 31.7833 13.9715 31.6513 14.5655 31.4233L14.3495 31.0453C13.7615 31.2913 13.0415 31.4293 12.1955 31.4653V34.1773C12.1835 35.1013 12.0455 35.8153 11.7875 36.3253L12.1775 36.5173C12.4415 35.9953 12.5735 35.2153 12.5855 34.1773V33.2833ZM17.1455 33.1753H19.5275V33.8293H17.1455V33.1753ZM19.5275 34.2073V34.8433H17.1455V34.2073H19.5275ZM19.5275 35.2213V35.9053C19.5275 36.0493 19.4495 36.1213 19.2935 36.1213C19.0955 36.1213 18.8795 36.1093 18.6515 36.0973L18.7595 36.4933H19.4315C19.7675 36.4813 19.9355 36.3313 19.9355 36.0373V32.7973H17.1515C17.2955 32.5753 17.4215 32.3413 17.5415 32.1013H20.7035V31.6813H17.7215C17.8055 31.4713 17.8775 31.2553 17.9495 31.0333L17.5115 30.9793C17.4395 31.2133 17.3495 31.4473 17.2475 31.6813H15.4595V32.1013H17.0495C16.6355 32.8753 16.0535 33.5593 15.2975 34.1593L15.5795 34.5253C16.0115 34.1773 16.4015 33.7873 16.7375 33.3673V36.5053H17.1455V35.2213H19.5275ZM24.2615 31.0273H23.8235C23.8235 31.2553 23.8175 31.5733 23.8115 31.9813C23.7575 33.7093 22.9055 35.0833 21.2555 36.0973L21.5195 36.4813C22.8515 35.6233 23.7035 34.5433 24.0635 33.2353C24.4895 34.5913 25.3175 35.6713 26.5415 36.4753L26.8235 36.0973C25.4255 35.2393 24.5555 33.9913 24.2195 32.3593C24.2435 31.9873 24.2615 31.5433 24.2615 31.0273ZM31.6115 31.5853V31.9813H32.5115V33.9073H33.8255V34.4473H31.4735V34.8493H33.4775C33.0815 35.2693 32.3495 35.6473 31.2695 35.9773L31.5095 36.3553C32.6135 35.9593 33.3815 35.4913 33.8255 34.9513V36.5173H34.2575V34.9213C34.7376 35.5093 35.5355 35.9893 36.6395 36.3613L36.8255 35.9713C35.8355 35.6953 35.1035 35.3233 34.6355 34.8493H36.6095V34.4473H34.2575V33.9073H35.5895V31.9813H36.4836V31.5853H35.5895V31.0453H35.1755V31.5853H32.9315V31.0453H32.5115V31.5853H31.6115ZM32.9315 31.9813H35.1755V32.5513H32.9315V31.9813ZM35.1755 32.9353V33.5113H32.9315V32.9353H35.1755ZM37.6115 31.5853V31.9813H38.5115V33.9073H39.8255V34.4473H37.4735V34.8493H39.4775C39.0815 35.2693 38.3495 35.6473 37.2695 35.9773L37.5095 36.3553C38.6135 35.9593 39.3815 35.4913 39.8255 34.9513V36.5173H40.2575V34.9213C40.7376 35.5093 41.5355 35.9893 42.6395 36.3613L42.8255 35.9713C41.8355 35.6953 41.1035 35.3233 40.6355 34.8493H42.6095V34.4473H40.2575V33.9073H41.5895V31.9813H42.4836V31.5853H41.5895V31.0453H41.1755V31.5853H38.9315V31.0453H38.5115V31.5853H37.6115ZM38.9315 31.9813H41.1755V32.5513H38.9315V31.9813ZM41.1755 32.9353V33.5113H38.9315V32.9353H41.1755Z" fill="black"/>
<path d="M10.85 44.1442V44.5702H12.464V46.0042H11.036V46.4182H12.464V47.9962H10.754V48.4222H14.618V47.9962H12.908V46.4182H14.324V46.0042H12.908V44.5702H14.492V44.1442H12.71L12.914 44.0662C12.836 43.7782 12.728 43.4662 12.584 43.1182L12.152 43.2322C12.29 43.5262 12.41 43.8322 12.512 44.1442H10.85ZM10.496 43.0882C10.208 44.0122 9.74598 44.8342 9.10998 45.5482L9.24798 46.0042C9.47598 45.7702 9.68598 45.5242 9.87798 45.2602V48.6322H10.304V44.6122C10.544 44.1922 10.742 43.7482 10.898 43.2742L10.496 43.0882ZM18.878 43.1122V47.9602H17.978V44.3842H17.546V47.9602H16.85V48.3802H20.63V47.9602H19.316V45.4462H20.456V45.0322H19.316V43.1122H18.878ZM17.15 46.8742C16.886 46.9702 16.616 47.0542 16.34 47.1322V45.0862H17.078V44.6662H16.34V43.1422H15.896V44.6662H15.146V45.0862H15.896V47.2522C15.632 47.3122 15.362 47.3662 15.086 47.4142L15.2 47.8702C15.896 47.7262 16.55 47.5402 17.15 47.3242V46.8742ZM25.0581 44.9182L26.1561 46.3762L24.9261 48.0202H25.4961L26.4261 46.7302L27.3501 48.0202H27.9201L26.6901 46.3762L27.7881 44.9182H27.2241L26.4261 46.0222L25.6221 44.9182H25.0581ZM28.1108 44.9182L29.2088 46.3762L27.9788 48.0202H28.5488L29.4788 46.7302L30.4028 48.0202H30.9728L29.7428 46.3762L30.8408 44.9182H30.2768L29.4788 46.0222L28.6748 44.9182H28.1108ZM31.1635 44.9182L32.2615 46.3762L31.0315 48.0202H31.6015L32.5315 46.7302L33.4555 48.0202H34.0255L32.7955 46.3762L33.8935 44.9182H33.3295L32.5315 46.0222L31.7275 44.9182H31.1635ZM34.2163 44.9182L35.3143 46.3762L34.0843 48.0202H34.6543L35.5843 46.7302L36.5083 48.0202H37.0783L35.8483 46.3762L36.9463 44.9182H36.3823L35.5843 46.0222L34.7803 44.9182H34.2163ZM37.269 44.9182L38.367 46.3762L37.137 48.0202H37.707L38.637 46.7302L39.561 48.0202H40.131L38.901 46.3762L39.999 44.9182H39.435L38.637 46.0222L37.833 44.9182H37.269ZM40.3217 44.9182L41.4197 46.3762L40.1897 48.0202H40.7597L41.6897 46.7302L42.6137 48.0202H43.1837L41.9537 46.3762L43.0517 44.9182H42.4877L41.6897 46.0222L40.8857 44.9182H40.3217ZM43.3745 44.9182L44.4725 46.3762L43.2425 48.0202H43.8125L44.7425 46.7302L45.6665 48.0202H46.2365L45.0065 46.3762L46.1045 44.9182H45.5405L44.7425 46.0222L43.9385 44.9182H43.3745ZM46.4272 44.9182L47.5252 46.3762L46.2952 48.0202H46.8652L47.7952 46.7302L48.7192 48.0202H49.2892L48.0592 46.3762L49.1572 44.9182H48.5932L47.7952 46.0222L46.9912 44.9182H46.4272ZM49.4799 44.9182L50.5779 46.3762L49.3479 48.0202H49.9179L50.8479 46.7302L51.7719 48.0202H52.3419L51.1119 46.3762L52.2099 44.9182H51.6459L50.8479 46.0222L50.0439 44.9182H49.4799ZM52.5327 44.9182L53.6307 46.3762L52.4007 48.0202H52.9707L53.9007 46.7302L54.8247 48.0202H55.3947L54.1647 46.3762L55.2627 44.9182H54.6987L53.9007 46.0222L53.0967 44.9182H52.5327Z" fill="black"/>
<path d="M11.052 53.71V54.124H12.624V54.694H11.256V56.392H12.6C12.564 56.812 12.48 57.154 12.354 57.418C12.036 57.19 11.748 56.92 11.49 56.596L11.16 56.824C11.436 57.178 11.754 57.484 12.108 57.736C11.832 58 11.382 58.168 10.77 58.234L10.956 58.63C11.652 58.528 12.162 58.312 12.486 57.982C13.122 58.354 13.86 58.564 14.7 58.618L14.808 58.204C14.022 58.162 13.326 57.976 12.726 57.646C12.888 57.346 12.99 56.932 13.038 56.392H14.466V54.694H13.062V54.124H14.712V53.71H13.062V53.098H12.624V53.71H11.052ZM14.058 56.002H13.056C13.056 55.954 13.062 55.906 13.062 55.858V55.078H14.058V56.002ZM12.618 56.002H11.664V55.078H12.624V55.858C12.624 55.906 12.618 55.954 12.618 56.002ZM9.954 55.264V58.612H10.386V54.574C10.608 54.16 10.794 53.716 10.944 53.248L10.536 53.062C10.26 54.01 9.81 54.85 9.186 55.582L9.33 56.038C9.558 55.792 9.762 55.534 9.954 55.264ZM16.278 55.192H17.802V56.242H16.278V55.192ZM16.254 56.638H17.802V58.396H18.246V56.638H19.878V57.682C19.878 57.934 19.764 58.06 19.548 58.06C19.344 58.06 19.122 58.048 18.882 58.036L18.996 58.462H19.686C20.106 58.462 20.316 58.252 20.316 57.832V53.338H15.846V56.218C15.834 57.04 15.636 57.718 15.252 58.252L15.582 58.546C15.966 58.042 16.188 57.406 16.254 56.638ZM19.878 56.242H18.246V55.192H19.878V56.242ZM19.878 54.79H18.246V53.758H19.878V54.79ZM17.802 53.758V54.79H16.278V53.758H17.802ZM21.444 54.256C21.426 54.832 21.354 55.378 21.228 55.894L21.582 55.996C21.702 55.456 21.774 54.88 21.786 54.28L21.444 54.256ZM22.95 54.13L22.632 54.232C22.77 54.568 22.884 54.922 22.974 55.288L23.274 55.21C23.22 55.33 23.16 55.456 23.094 55.588L23.412 55.876C23.622 55.504 23.784 55.096 23.892 54.658H24.828V56.11H23.454V56.536H24.828V58H23.112V58.42H26.736V58H25.272V56.536H26.49V56.11H25.272V54.658H26.58V54.244H25.272V53.122H24.828V54.244H23.97C24.006 54.016 24.03 53.776 24.042 53.524L23.652 53.47C23.622 54.064 23.502 54.622 23.298 55.144C23.196 54.76 23.082 54.424 22.95 54.13ZM22.092 53.116V58.576H22.53V53.116H22.092ZM28.302 54.85H30.24C30.204 55.042 30.162 55.228 30.114 55.42H28.896V57.484H29.31V55.816H31.68V57.46H32.094V55.42H30.552C30.6 55.24 30.642 55.054 30.678 54.85H32.646V54.454H30.744C30.768 54.298 30.792 54.13 30.81 53.962L30.378 53.908C30.36 54.088 30.336 54.274 30.306 54.454H28.302V53.866C29.808 53.842 31.17 53.728 32.382 53.524L32.166 53.134C30.9 53.362 29.472 53.488 27.888 53.5V55.378C27.852 56.59 27.63 57.544 27.222 58.228L27.522 58.546C28.014 57.754 28.272 56.698 28.302 55.378V54.85ZM30.84 57.322L30.624 57.646C31.236 57.88 31.836 58.198 32.418 58.594L32.658 58.228C32.112 57.874 31.506 57.574 30.84 57.322ZM30.396 56.056C30.33 56.662 30.132 57.13 29.796 57.454C29.46 57.778 28.938 58.024 28.23 58.204L28.464 58.6C29.226 58.384 29.796 58.084 30.168 57.712C30.528 57.34 30.744 56.794 30.816 56.086L30.396 56.056ZM37.1581 54.898L38.2561 56.356L37.0261 58H37.5961L38.5261 56.71L39.4501 58H40.0201L38.7901 56.356L39.8881 54.898H39.3241L38.5261 56.002L37.7221 54.898H37.1581ZM40.2108 54.898L41.3088 56.356L40.0788 58H40.6488L41.5788 56.71L42.5028 58H43.0728L41.8428 56.356L42.9408 54.898H42.3768L41.5788 56.002L40.7748 54.898H40.2108ZM43.2636 54.898L44.3616 56.356L43.1316 58H43.7016L44.6316 56.71L45.5556 58H46.1256L44.8956 56.356L45.9936 54.898H45.4296L44.6316 56.002L43.8276 54.898H43.2636ZM46.3163 54.898L47.4143 56.356L46.1843 58H46.7543L47.6843 56.71L48.6083 58H49.1783L47.9483 56.356L49.0463 54.898H48.4823L47.6843 56.002L46.8803 54.898H46.3163Z" fill="black"/>
<path d="M62.344 53.35V55.312H65.65V53.35H62.344ZM65.218 54.904H62.776V53.758H65.218V54.904ZM63.658 55.906H61.546V58.51H61.972V58.204H63.238V58.51H63.658V55.906ZM61.972 57.796V56.32H63.238V57.796H61.972ZM66.448 55.906H64.276V58.51H64.702V58.204H66.016V58.51H66.448V55.906ZM64.702 57.796V56.32H66.016V57.796H64.702ZM68.68 53.164V54.766H68.044V53.284H67.63V55.468C67.624 56.8 67.474 57.772 67.186 58.372L67.504 58.648C67.774 58.138 67.942 57.4 68.014 56.434H68.74V58.516H69.16V56.032H68.032C68.038 55.852 68.044 55.666 68.044 55.468V55.168H69.43V54.766H69.094V53.164H68.68ZM69.712 53.632V56.17H70.6C70.444 56.41 70.198 56.602 69.856 56.758L70.03 57.034H69.436V57.448H71.272V58.582H71.692V57.448H72.73V57.034H71.692V56.41H71.272V57.034H70.102C70.498 56.86 70.786 56.62 70.966 56.314L71.038 56.17H72.424V53.632H71.08C71.158 53.464 71.218 53.29 71.266 53.104L70.834 53.05C70.792 53.248 70.726 53.44 70.642 53.632H69.712ZM72.028 55.792H71.164C71.212 55.582 71.248 55.342 71.26 55.078H72.028V55.792ZM70.762 55.792H70.102V55.078H70.87C70.858 55.342 70.822 55.576 70.762 55.792ZM70.102 54.712V54.016H70.876V54.712H70.102ZM71.266 54.016H72.028V54.712H71.266V54.016ZM73.558 53.368V53.752H74.17V54.652H73.402V55.048H74.146C74.086 55.54 73.888 55.906 73.552 56.158L73.876 56.44C74.272 56.128 74.5 55.666 74.566 55.048H75.352V56.368H75.772V55.048H76.51V54.652H75.772V53.752H76.378V53.368H73.558ZM74.584 53.752H75.352V54.652H74.584V53.752ZM76.864 53.506V55.57H77.278V53.506H76.864ZM73.702 56.956V57.352H75.808V58.054H73.366V58.45H78.634V58.054H76.24V57.352H78.304V56.956H76.24V56.434H75.808V56.956H73.702ZM77.884 56.422C78.202 56.422 78.364 56.236 78.364 55.87V53.176H77.95V55.768C77.95 55.948 77.878 56.044 77.74 56.044C77.5 56.044 77.254 56.032 76.99 56.014L77.08 56.422H77.884ZM80.242 53.314V54.934H83.758V53.314H80.242ZM83.314 54.544H80.686V53.704H83.314V54.544ZM80.674 55.864L80.392 56.956H83.404C83.368 57.496 83.314 57.832 83.242 57.964C83.164 58.096 82.966 58.162 82.642 58.162C82.396 58.162 82.114 58.15 81.796 58.126L81.94 58.522C82.174 58.546 82.438 58.558 82.738 58.558C83.146 58.558 83.422 58.468 83.566 58.288C83.71 58.102 83.806 57.526 83.842 56.566H80.908L81.112 55.864H84.694V55.45H79.3V55.864H80.674ZM89.1581 54.898L90.2561 56.356L89.0261 58H89.5961L90.5261 56.71L91.4501 58H92.0201L90.7901 56.356L91.8881 54.898H91.3241L90.5261 56.002L89.7221 54.898H89.1581ZM92.2108 54.898L93.3088 56.356L92.0788 58H92.6488L93.5788 56.71L94.5028 58H95.0728L93.8428 56.356L94.9408 54.898H94.3768L93.5788 56.002L92.7748 54.898H92.2108ZM95.2636 54.898L96.3616 56.356L95.1316 58H95.7016L96.6316 56.71L97.5556 58H98.1256L96.8956 56.356L97.9936 54.898H97.4296L96.6316 56.002L95.8276 54.898H95.2636ZM98.3163 54.898L99.4143 56.356L98.1843 58H98.7543L99.6843 56.71L100.608 58H101.178L99.9483 56.356L101.046 54.898H100.482L99.6843 56.002L98.8803 54.898H98.3163ZM101.369 54.898L102.467 56.356L101.237 58H101.807L102.737 56.71L103.661 58H104.231L103.001 56.356L104.099 54.898H103.535L102.737 56.002L101.933 54.898H101.369ZM104.422 54.898L105.52 56.356L104.29 58H104.86L105.79 56.71L106.714 58H107.284L106.054 56.356L107.152 54.898H106.588L105.79 56.002L104.986 54.898H104.422ZM107.475 54.898L108.573 56.356L107.343 58H107.913L108.843 56.71L109.767 58H110.337L109.107 56.356L110.205 54.898H109.641L108.843 56.002L108.039 54.898H107.475ZM110.527 54.898L111.625 56.356L110.395 58H110.965L111.895 56.71L112.819 58H113.389L112.159 56.356L113.257 54.898H112.693L111.895 56.002L111.091 54.898H110.527ZM113.58 54.898L114.678 56.356L113.448 58H114.018L114.948 56.71L115.872 58H116.442L115.212 56.356L116.31 54.898H115.746L114.948 56.002L114.144 54.898H113.58Z" fill="black"/>
<path d="M45.528 63.872V64.292H46.728C46.434 64.832 46.11 65.288 45.762 65.648L45.858 66.044H47.856V66.926H45.438V67.346H47.856V68.636H48.294V67.346H50.568V66.926H48.294V66.044H50.142V65.648H48.294V64.766H47.856V65.648H46.308C46.632 65.252 46.926 64.802 47.196 64.292H50.466V63.872H47.406C47.508 63.644 47.61 63.41 47.706 63.164L47.274 63.068C47.166 63.35 47.052 63.62 46.938 63.872H45.528ZM53.514 63.41V63.818H54.51L54.492 64.754H53.628V68.594H54.006V65.144H54.48C54.48 65.174 54.474 65.21 54.474 65.252C54.432 66.104 54.294 66.782 54.054 67.286L54.288 67.586C54.462 67.238 54.594 66.83 54.684 66.374C54.756 66.518 54.834 66.704 54.93 66.926L55.11 66.644C54.99 66.404 54.864 66.188 54.744 65.996C54.768 65.816 54.786 65.624 54.798 65.426C54.798 65.336 54.804 65.24 54.816 65.144H55.344L55.332 65.378C55.284 66.296 55.128 67.028 54.87 67.568L55.104 67.868C55.32 67.442 55.476 66.938 55.572 66.356C55.668 66.596 55.788 66.914 55.92 67.298L56.124 66.992C55.956 66.608 55.794 66.266 55.626 65.954L55.662 65.552C55.668 65.426 55.674 65.288 55.686 65.144H56.136V67.868C56.136 68.066 56.052 68.168 55.89 68.168L55.326 68.15L55.428 68.54H56.016C56.346 68.54 56.514 68.342 56.514 67.958V64.754H55.698C55.71 64.478 55.716 64.166 55.716 63.818H56.664V63.41H53.514ZM54.828 64.754L54.846 63.818H55.368L55.356 64.754H54.828ZM52.392 64.754V65.66H51.786C51.942 65.27 52.092 64.814 52.224 64.298H53.394V63.89H52.326C52.374 63.662 52.428 63.416 52.482 63.152L52.068 63.086C52.014 63.362 51.96 63.632 51.906 63.89H51.348V64.298H51.81C51.666 64.85 51.516 65.306 51.354 65.666L51.444 66.038H52.392V66.95C52.032 67.022 51.654 67.082 51.246 67.142L51.3 67.55C51.678 67.49 52.044 67.424 52.392 67.352V68.612H52.788V67.262C53.004 67.208 53.214 67.148 53.424 67.082V66.686C53.226 66.746 53.016 66.8 52.788 66.86V66.038H53.37V65.66H52.788V64.754H52.392ZM59.616 63.458V66.26H62.376V63.458H59.616ZM61.944 65.84H60.048V63.872H61.944V65.84ZM57.984 63.158L57.684 63.452C58.11 63.776 58.446 64.082 58.692 64.37L58.986 64.07C58.71 63.764 58.38 63.458 57.984 63.158ZM57.264 64.934V65.348H58.134V67.736C58.134 67.832 58.092 67.916 58.008 67.988L58.176 68.372C58.566 68.102 58.932 67.796 59.28 67.448L59.166 66.992C58.944 67.214 58.74 67.412 58.548 67.58V64.934H57.264ZM60.258 66.62C59.97 67.292 59.616 67.874 59.202 68.354L59.58 68.63C59.988 68.114 60.342 67.508 60.642 66.806L60.258 66.62ZM61.698 66.602L61.35 66.824C61.8 67.472 62.154 68.066 62.418 68.606L62.79 68.348C62.538 67.85 62.172 67.268 61.698 66.602ZM64.536 65.246C64.524 65.51 64.5 65.75 64.476 65.978H63.354V66.38H64.422C64.368 66.668 64.302 66.914 64.218 67.106C64.026 67.55 63.696 67.928 63.234 68.246L63.51 68.588C64.02 68.222 64.386 67.784 64.608 67.28C64.704 67.052 64.782 66.752 64.848 66.38H65.766C65.754 67.142 65.736 67.598 65.7 67.748C65.652 68.006 65.472 68.138 65.172 68.138C65.046 68.138 64.896 68.126 64.722 68.114L64.824 68.498C65.016 68.51 65.148 68.516 65.232 68.516C65.754 68.516 66.042 68.312 66.102 67.916C66.162 67.664 66.192 67.022 66.192 65.978H64.902C64.926 65.75 64.944 65.51 64.956 65.246H66.132V63.338H63.582V65.246H64.536ZM66.81 63.626V67.364H67.23V63.626H66.81ZM67.926 68.546C68.298 68.546 68.49 68.342 68.49 67.946V63.116H68.058V67.838C68.058 68.054 67.962 68.162 67.776 68.162C67.524 68.162 67.26 68.15 66.978 68.132L67.074 68.546H67.926ZM65.718 64.85H63.996V63.728H65.718V64.85ZM74.466 64.532L72.516 64.778C72.48 64.292 72.462 63.728 72.462 63.086H72.018C72.024 63.746 72.048 64.328 72.09 64.832L70.758 65.006L70.824 65.42L72.126 65.252C72.168 65.696 72.228 66.062 72.306 66.362C72.474 67.034 72.726 67.58 73.068 68C73.38 68.378 73.686 68.57 73.98 68.57C74.142 68.564 74.28 68.474 74.388 68.3C74.52 68.06 74.622 67.694 74.7 67.202L74.322 66.986C74.238 67.742 74.118 68.126 73.956 68.132C73.752 68.126 73.53 67.964 73.296 67.64C73.038 67.292 72.84 66.812 72.696 66.188C72.636 65.912 72.588 65.582 72.552 65.198L74.532 64.946L74.466 64.532ZM70.008 65.234V68.612H70.452V64.556C70.686 64.154 70.878 63.722 71.034 63.266L70.632 63.074C70.332 64.01 69.858 64.844 69.198 65.57L69.336 66.02C69.576 65.768 69.804 65.51 70.008 65.234ZM73.116 63.128L72.84 63.398C73.224 63.728 73.53 64.04 73.746 64.334L74.046 64.04C73.794 63.74 73.482 63.434 73.116 63.128ZM76.242 63.314V64.934H79.758V63.314H76.242ZM79.314 64.544H76.686V63.704H79.314V64.544ZM76.674 65.864L76.392 66.956H79.404C79.368 67.496 79.314 67.832 79.242 67.964C79.164 68.096 78.966 68.162 78.642 68.162C78.396 68.162 78.114 68.15 77.796 68.126L77.94 68.522C78.174 68.546 78.438 68.558 78.738 68.558C79.146 68.558 79.422 68.468 79.566 68.288C79.71 68.102 79.806 67.526 79.842 66.566H76.908L77.112 65.864H80.694V65.45H75.3V65.864H76.674ZM85.1581 64.898L86.2561 66.356L85.0261 68H85.5961L86.5261 66.71L87.4501 68H88.0201L86.7901 66.356L87.8881 64.898H87.3241L86.5261 66.002L85.7221 64.898H85.1581ZM88.2108 64.898L89.3088 66.356L88.0788 68H88.6488L89.5788 66.71L90.5028 68H91.0728L89.8428 66.356L90.9408 64.898H90.3768L89.5788 66.002L88.7748 64.898H88.2108ZM91.2636 64.898L92.3616 66.356L91.1316 68H91.7016L92.6316 66.71L93.5556 68H94.1256L92.8956 66.356L93.9936 64.898H93.4296L92.6316 66.002L91.8276 64.898H91.2636ZM94.3163 64.898L95.4143 66.356L94.1843 68H94.7543L95.6843 66.71L96.6083 68H97.1783L95.9483 66.356L97.0463 64.898H96.4823L95.6843 66.002L94.8803 64.898H94.3163Z" fill="black"/>
<path d="M45.296 75.34H46.784C46.364 76.678 45.722 77.728 44.846 78.496L45.068 78.892C45.752 78.334 46.316 77.584 46.754 76.636C46.952 77.056 47.282 77.446 47.75 77.806C47.3 78.1 46.742 78.37 46.07 78.616L46.298 79.018C47.024 78.736 47.636 78.424 48.128 78.076C48.632 78.406 49.268 78.712 50.036 78.994L50.258 78.592C49.562 78.352 48.968 78.088 48.482 77.8C48.974 77.38 49.298 76.912 49.46 76.396V76.024H47.006C47.09 75.808 47.162 75.58 47.234 75.34H50.156V74.926H47.348C47.456 74.482 47.552 74.014 47.63 73.51L47.192 73.456C47.12 73.972 47.024 74.458 46.904 74.926H45.854L46.196 73.744L45.77 73.672L45.296 75.34ZM47.078 76.42H49.022C48.854 76.828 48.548 77.206 48.104 77.554C47.624 77.206 47.282 76.828 47.078 76.42ZM48.638 73.504L48.35 73.786C48.8 74.146 49.154 74.482 49.406 74.8L49.712 74.494C49.424 74.164 49.07 73.834 48.638 73.504ZM51.14 73.918V74.332H53.312V73.918H51.14ZM50.906 75.538V75.958H51.74C51.44 77.05 51.2 77.716 51.02 77.962C50.996 77.974 50.966 77.986 50.924 77.998L51.026 78.406C51.77 78.274 52.466 78.094 53.102 77.866C53.162 78.004 53.222 78.148 53.282 78.304L53.654 78.112C53.402 77.506 53.132 76.948 52.844 76.432L52.478 76.612C52.634 76.888 52.784 77.182 52.94 77.506C52.472 77.68 51.998 77.818 51.524 77.914C51.704 77.518 51.914 76.87 52.154 75.958H53.54V75.538H50.906ZM54.44 73.516V74.728H53.63V75.148H54.44V75.22C54.428 76.834 54.044 78.004 53.294 78.73L53.618 79.012C54.434 78.214 54.854 76.948 54.872 75.22V75.148H55.76C55.748 76.762 55.724 77.728 55.688 78.046C55.64 78.388 55.466 78.562 55.172 78.562C55.01 78.562 54.818 78.55 54.602 78.538L54.698 78.922C54.95 78.934 55.124 78.94 55.226 78.94C55.742 78.94 56.036 78.694 56.096 78.208C56.15 77.764 56.18 76.606 56.18 74.728H54.872V73.516H54.44ZM56.948 74.674V75.088H57.824C57.626 75.838 57.296 76.504 56.834 77.086L57.02 77.554C57.356 77.062 57.632 76.522 57.842 75.922V78.97H58.274V75.808C58.442 76.042 58.64 76.348 58.868 76.726L59.12 76.354C58.832 76 58.55 75.682 58.274 75.394V75.088H59.018V74.674H58.274V73.504H57.842V74.674H56.948ZM58.736 78.706L59.09 79.024C59.372 78.592 59.564 78.148 59.666 77.68C59.774 77.236 59.828 76.684 59.828 76.024V74.158H60.896V78.334C60.896 78.682 61.088 78.856 61.472 78.856H61.718C61.91 78.856 62.054 78.82 62.15 78.754C62.246 78.67 62.306 78.526 62.33 78.31C62.354 78.082 62.372 77.758 62.372 77.326L61.976 77.2C61.976 77.776 61.958 78.118 61.934 78.238C61.922 78.322 61.892 78.376 61.844 78.412C61.802 78.436 61.748 78.448 61.676 78.448H61.472C61.376 78.448 61.334 78.394 61.334 78.292V73.75H59.396V76.024C59.396 76.642 59.354 77.134 59.276 77.5C59.174 77.926 58.994 78.328 58.736 78.706ZM63.842 73.714V75.334H67.358V73.714H63.842ZM66.914 74.944H64.286V74.104H66.914V74.944ZM64.274 76.264L63.992 77.356H67.004C66.968 77.896 66.914 78.232 66.842 78.364C66.764 78.496 66.566 78.562 66.242 78.562C65.996 78.562 65.714 78.55 65.396 78.526L65.54 78.922C65.774 78.946 66.038 78.958 66.338 78.958C66.746 78.958 67.022 78.868 67.166 78.688C67.31 78.502 67.406 77.926 67.442 76.966H64.508L64.712 76.264H68.294V75.85H62.9V76.264H64.274ZM70.868 75.604H69.764C69.92 75.184 70.034 74.734 70.118 74.254H71.024V73.834H68.978V74.254H69.71C69.566 75.148 69.266 75.946 68.81 76.642L69.026 76.99C69.17 76.786 69.302 76.576 69.422 76.36V78.802H69.824V78.346H70.472V78.688H70.868V75.604ZM69.824 77.956V76H70.472V77.956H69.824ZM71.678 74.578L71.354 76.522H73.778C73.778 77.482 73.73 78.064 73.634 78.268C73.544 78.46 73.268 78.562 72.806 78.562C72.698 78.562 72.512 78.55 72.248 78.526L72.368 78.946C72.56 78.958 72.74 78.964 72.908 78.964C73.436 78.964 73.778 78.85 73.946 78.634C74.102 78.406 74.186 77.572 74.186 76.12H73.55L73.88 73.75H71.3V74.158H73.412L73.112 76.12H71.84L72.104 74.608L71.678 74.578ZM71.168 77.284V77.692H73.364V77.284H71.168ZM78.7581 75.298L79.8561 76.756L78.6261 78.4H79.1961L80.1261 77.11L81.0501 78.4H81.6201L80.3901 76.756L81.4881 75.298H80.9241L80.1261 76.402L79.3221 75.298H78.7581ZM81.8108 75.298L82.9088 76.756L81.6788 78.4H82.2488L83.1788 77.11L84.1028 78.4H84.6728L83.4428 76.756L84.5408 75.298H83.9768L83.1788 76.402L82.3748 75.298H81.8108ZM84.8636 75.298L85.9616 76.756L84.7316 78.4H85.3016L86.2316 77.11L87.1556 78.4H87.7256L86.4956 76.756L87.5936 75.298H87.0296L86.2316 76.402L85.4276 75.298H84.8636ZM87.9163 75.298L89.0143 76.756L87.7843 78.4H88.3543L89.2843 77.11L90.2083 78.4H90.7783L89.5483 76.756L90.6463 75.298H90.0823L89.2843 76.402L88.4803 75.298H87.9163Z" fill="black"/>
<path d="M45.786 85.188L45.474 85.488C45.918 85.8 46.272 86.1 46.524 86.382L46.83 86.076C46.548 85.782 46.2 85.488 45.786 85.188ZM45.636 86.604L45.33 86.898C45.75 87.222 46.08 87.522 46.32 87.798L46.626 87.492C46.362 87.192 46.032 86.898 45.636 86.604ZM46.392 88.26C46.122 88.98 45.804 89.682 45.444 90.366L45.876 90.552C46.206 89.886 46.506 89.172 46.776 88.416L46.392 88.26ZM47.064 86.112V86.538H48.624V87.978H47.232V88.392H48.624V89.97H46.914V90.396H50.724V89.97H49.062V88.392H50.448V87.978H49.062V86.538H50.61V86.112H48.822L49.068 86.016C48.978 85.728 48.846 85.416 48.678 85.068L48.27 85.182C48.426 85.482 48.558 85.788 48.678 86.112H47.064ZM51.276 87.492V87.906H51.984V88.236C51.972 89.076 51.804 89.766 51.474 90.306L51.792 90.6C52.188 89.988 52.392 89.19 52.404 88.2V87.906H53.274V89.892C53.274 90.06 53.208 90.144 53.088 90.144C52.92 90.144 52.74 90.138 52.548 90.126L52.656 90.534H53.22C53.532 90.534 53.688 90.366 53.688 90.036V87.906H54.36V88.242C54.348 89.082 54.198 89.772 53.91 90.312L54.228 90.594C54.582 89.988 54.762 89.196 54.774 88.212V87.906H55.65V89.892C55.65 90.06 55.572 90.144 55.416 90.144C55.248 90.144 55.068 90.138 54.876 90.126L54.99 90.534H55.548C55.896 90.534 56.076 90.372 56.076 90.048V87.906H56.724V87.492H56.076V85.332H54.36V87.492H53.688V85.332H51.984V87.492H51.276ZM55.65 87.492H54.774V85.728H55.65V87.492ZM53.274 87.492H52.404V85.728H53.274V87.492ZM61.914 85.338H58.206V90.576H58.638V90.114H61.476V90.57H61.914V85.338ZM58.638 89.694V87.888H61.476V89.694H58.638ZM58.638 87.468V85.758H61.476V87.468H58.638ZM63.75 85.116V85.788H63.378V86.19H63.75V88.728H63.312V89.136H66.15V88.728H65.76V86.19H66.12V85.788H65.76V85.128H65.34V85.788H64.17V85.116H63.75ZM64.17 88.728V88.14H65.34V88.728H64.17ZM65.34 86.19V86.79H64.17V86.19H65.34ZM64.17 87.762V87.168H65.34V87.762H64.17ZM65.232 89.292L64.896 89.502C65.166 89.862 65.382 90.198 65.538 90.504L65.856 90.276C65.85 90.288 65.844 90.3 65.832 90.312L66.162 90.618C66.558 90.09 66.798 89.436 66.882 88.644H68.046V89.874C68.046 90.054 67.968 90.144 67.812 90.144C67.62 90.144 67.416 90.132 67.194 90.12L67.314 90.546H67.95C68.298 90.546 68.478 90.372 68.478 90.03V85.326H66.486V88.134C66.474 88.974 66.276 89.676 65.88 90.234C65.73 89.97 65.514 89.652 65.232 89.292ZM64.062 89.286C63.84 89.694 63.576 90.042 63.276 90.336L63.618 90.582C63.918 90.264 64.182 89.886 64.41 89.454L64.062 89.286ZM66.912 87.18H68.046V88.248H66.906C66.906 88.2 66.912 88.152 66.912 88.098V87.18ZM68.046 86.784H66.912V85.734H68.046V86.784ZM71.16 86.898L72.258 88.356L71.028 90H71.598L72.528 88.71L73.452 90H74.022L72.792 88.356L73.89 86.898H73.326L72.528 88.002L71.724 86.898H71.16ZM74.2128 86.898L75.3108 88.356L74.0808 90H74.6508L75.5808 88.71L76.5048 90H77.0748L75.8448 88.356L76.9428 86.898H76.3788L75.5808 88.002L74.7768 86.898H74.2128ZM77.2655 86.898L78.3635 88.356L77.1335 90H77.7035L78.6335 88.71L79.5575 90H80.1275L78.8975 88.356L79.9955 86.898H79.4315L78.6335 88.002L77.8295 86.898H77.2655ZM80.3183 86.898L81.4163 88.356L80.1863 90H80.7563L81.6863 88.71L82.6103 90H83.1803L81.9503 88.356L83.0483 86.898H82.4843L81.6863 88.002L80.8823 86.898H80.3183ZM83.371 86.898L84.469 88.356L83.239 90H83.809L84.739 88.71L85.663 90H86.233L85.003 88.356L86.101 86.898H85.537L84.739 88.002L83.935 86.898H83.371ZM86.4237 86.898L87.5217 88.356L86.2917 90H86.8617L87.7917 88.71L88.7157 90H89.2857L88.0557 88.356L89.1537 86.898H88.5897L87.7917 88.002L86.9877 86.898H86.4237Z" fill="black"/>
<path d="M108.786 85.188L108.474 85.488C108.918 85.8 109.272 86.1 109.524 86.382L109.83 86.076C109.548 85.782 109.2 85.488 108.786 85.188ZM108.636 86.604L108.33 86.898C108.75 87.222 109.08 87.522 109.32 87.798L109.626 87.492C109.362 87.192 109.032 86.898 108.636 86.604ZM109.392 88.26C109.122 88.98 108.804 89.682 108.444 90.366L108.876 90.552C109.206 89.886 109.506 89.172 109.776 88.416L109.392 88.26ZM110.064 86.112V86.538H111.624V87.978H110.232V88.392H111.624V89.97H109.914V90.396H113.724V89.97H112.062V88.392H113.448V87.978H112.062V86.538H113.61V86.112H111.822L112.068 86.016C111.978 85.728 111.846 85.416 111.678 85.068L111.27 85.182C111.426 85.482 111.558 85.788 111.678 86.112H110.064ZM114.276 87.492V87.906H114.984V88.236C114.972 89.076 114.804 89.766 114.474 90.306L114.792 90.6C115.188 89.988 115.392 89.19 115.404 88.2V87.906H116.274V89.892C116.274 90.06 116.208 90.144 116.088 90.144C115.92 90.144 115.74 90.138 115.548 90.126L115.656 90.534H116.22C116.532 90.534 116.688 90.366 116.688 90.036V87.906H117.36V88.242C117.348 89.082 117.198 89.772 116.91 90.312L117.228 90.594C117.582 89.988 117.762 89.196 117.774 88.212V87.906H118.65V89.892C118.65 90.06 118.572 90.144 118.416 90.144C118.248 90.144 118.068 90.138 117.876 90.126L117.99 90.534H118.548C118.896 90.534 119.076 90.372 119.076 90.048V87.906H119.724V87.492H119.076V85.332H117.36V87.492H116.688V85.332H114.984V87.492H114.276ZM118.65 87.492H117.774V85.728H118.65V87.492ZM116.274 87.492H115.404V85.728H116.274V87.492ZM124.914 85.338H121.206V90.576H121.638V90.114H124.476V90.57H124.914V85.338ZM121.638 89.694V87.888H124.476V89.694H121.638ZM121.638 87.468V85.758H124.476V87.468H121.638ZM126.75 85.116V85.788H126.378V86.19H126.75V88.728H126.312V89.136H129.15V88.728H128.76V86.19H129.12V85.788H128.76V85.128H128.34V85.788H127.17V85.116H126.75ZM127.17 88.728V88.14H128.34V88.728H127.17ZM128.34 86.19V86.79H127.17V86.19H128.34ZM127.17 87.762V87.168H128.34V87.762H127.17ZM128.232 89.292L127.896 89.502C128.166 89.862 128.382 90.198 128.538 90.504L128.856 90.276C128.85 90.288 128.844 90.3 128.832 90.312L129.162 90.618C129.558 90.09 129.798 89.436 129.882 88.644H131.046V89.874C131.046 90.054 130.968 90.144 130.812 90.144C130.62 90.144 130.416 90.132 130.194 90.12L130.314 90.546H130.95C131.298 90.546 131.478 90.372 131.478 90.03V85.326H129.486V88.134C129.474 88.974 129.276 89.676 128.88 90.234C128.73 89.97 128.514 89.652 128.232 89.292ZM127.062 89.286C126.84 89.694 126.576 90.042 126.276 90.336L126.618 90.582C126.918 90.264 127.182 89.886 127.41 89.454L127.062 89.286ZM129.912 87.18H131.046V88.248H129.906C129.906 88.2 129.912 88.152 129.912 88.098V87.18ZM131.046 86.784H129.912V85.734H131.046V86.784ZM134.16 86.898L135.258 88.356L134.028 90H134.598L135.528 88.71L136.452 90H137.022L135.792 88.356L136.89 86.898H136.326L135.528 88.002L134.724 86.898H134.16ZM137.213 86.898L138.311 88.356L137.081 90H137.651L138.581 88.71L139.505 90H140.075L138.845 88.356L139.943 86.898H139.379L138.581 88.002L137.777 86.898H137.213ZM140.266 86.898L141.364 88.356L140.134 90H140.704L141.634 88.71L142.558 90H143.128L141.898 88.356L142.996 86.898H142.432L141.634 88.002L140.83 86.898H140.266ZM143.318 86.898L144.416 88.356L143.186 90H143.756L144.686 88.71L145.61 90H146.18L144.95 88.356L146.048 86.898H145.484L144.686 88.002L143.882 86.898H143.318ZM146.371 86.898L147.469 88.356L146.239 90H146.809L147.739 88.71L148.663 90H149.233L148.003 88.356L149.101 86.898H148.537L147.739 88.002L146.935 86.898H146.371ZM149.424 86.898L150.522 88.356L149.292 90H149.862L150.792 88.71L151.716 90H152.286L151.056 88.356L152.154 86.898H151.59L150.792 88.002L149.988 86.898H149.424Z" fill="black"/>
<path d="M70.328 19.672V20.092H71.528C71.234 20.632 70.91 21.088 70.562 21.448L70.658 21.844H72.656V22.726H70.238V23.146H72.656V24.436H73.094V23.146H75.368V22.726H73.094V21.844H74.942V21.448H73.094V20.566H72.656V21.448H71.108C71.432 21.052 71.726 20.602 71.996 20.092H75.266V19.672H72.206C72.308 19.444 72.41 19.21 72.506 18.964L72.074 18.868C71.966 19.15 71.852 19.42 71.738 19.672H70.328ZM78.314 19.21V19.618H79.31L79.292 20.554H78.428V24.394H78.806V20.944H79.28C79.28 20.974 79.274 21.01 79.274 21.052C79.232 21.904 79.094 22.582 78.854 23.086L79.088 23.386C79.262 23.038 79.394 22.63 79.484 22.174C79.556 22.318 79.634 22.504 79.73 22.726L79.91 22.444C79.79 22.204 79.664 21.988 79.544 21.796C79.568 21.616 79.586 21.424 79.598 21.226C79.598 21.136 79.604 21.04 79.616 20.944H80.144L80.132 21.178C80.084 22.096 79.928 22.828 79.67 23.368L79.904 23.668C80.12 23.242 80.276 22.738 80.372 22.156C80.468 22.396 80.588 22.714 80.72 23.098L80.924 22.792C80.756 22.408 80.594 22.066 80.426 21.754L80.462 21.352C80.468 21.226 80.474 21.088 80.486 20.944H80.936V23.668C80.936 23.866 80.852 23.968 80.69 23.968L80.126 23.95L80.228 24.34H80.816C81.146 24.34 81.314 24.142 81.314 23.758V20.554H80.498C80.51 20.278 80.516 19.966 80.516 19.618H81.464V19.21H78.314ZM79.628 20.554L79.646 19.618H80.168L80.156 20.554H79.628ZM77.192 20.554V21.46H76.586C76.742 21.07 76.892 20.614 77.024 20.098H78.194V19.69H77.126C77.174 19.462 77.228 19.216 77.282 18.952L76.868 18.886C76.814 19.162 76.76 19.432 76.706 19.69H76.148V20.098H76.61C76.466 20.65 76.316 21.106 76.154 21.466L76.244 21.838H77.192V22.75C76.832 22.822 76.454 22.882 76.046 22.942L76.1 23.35C76.478 23.29 76.844 23.224 77.192 23.152V24.412H77.588V23.062C77.804 23.008 78.014 22.948 78.224 22.882V22.486C78.026 22.546 77.816 22.6 77.588 22.66V21.838H78.17V21.46H77.588V20.554H77.192ZM85.022 20.896C85.694 21.13 86.36 21.436 87.008 21.814L87.242 21.454C86.57 21.124 85.826 20.842 85.022 20.602V20.494H87.332V20.092H85.022V18.892H84.578V20.092H82.268V20.494H84.164C83.828 20.878 83.192 21.22 82.262 21.52L82.496 21.892C83.498 21.502 84.182 21.034 84.542 20.494H84.578V21.586H85.022V20.896ZM84.722 22.864C85.286 23.596 86.132 24.106 87.248 24.4L87.464 24.016C86.45 23.776 85.664 23.356 85.1 22.75H87.38V22.348H84.926C84.974 22.174 85.016 21.982 85.04 21.778H84.596C84.572 21.982 84.53 22.168 84.47 22.348H82.22V22.75H84.296C84.2 22.924 84.074 23.08 83.93 23.218C83.564 23.554 82.97 23.812 82.148 23.992L82.316 24.394C83.234 24.172 83.888 23.872 84.278 23.488C84.458 23.308 84.602 23.098 84.722 22.864ZM83.336 18.982L82.964 19.108C83.156 19.366 83.312 19.636 83.432 19.912L83.798 19.816C83.666 19.504 83.51 19.222 83.336 18.982ZM86.246 18.97C86.114 19.3 85.952 19.576 85.766 19.792L86.126 19.924C86.33 19.672 86.498 19.39 86.624 19.066L86.246 18.97ZM88.358 19.168V19.552H88.97V20.452H88.202V20.848H88.946C88.886 21.34 88.688 21.706 88.352 21.958L88.676 22.24C89.072 21.928 89.3 21.466 89.366 20.848H90.152V22.168H90.572V20.848H91.31V20.452H90.572V19.552H91.178V19.168H88.358ZM89.384 19.552H90.152V20.452H89.384V19.552ZM91.664 19.306V21.37H92.078V19.306H91.664ZM88.502 22.756V23.152H90.608V23.854H88.166V24.25H93.434V23.854H91.04V23.152H93.104V22.756H91.04V22.234H90.608V22.756H88.502ZM92.684 22.222C93.002 22.222 93.164 22.036 93.164 21.67V18.976H92.75V21.568C92.75 21.748 92.678 21.844 92.54 21.844C92.3 21.844 92.054 21.832 91.79 21.814L91.88 22.222H92.684ZM97.9581 20.698L99.0561 22.156L97.8261 23.8H98.3961L99.3261 22.51L100.25 23.8H100.82L99.5901 22.156L100.688 20.698H100.124L99.3261 21.802L98.5221 20.698H97.9581ZM101.011 20.698L102.109 22.156L100.879 23.8H101.449L102.379 22.51L103.303 23.8H103.873L102.643 22.156L103.741 20.698H103.177L102.379 21.802L101.575 20.698H101.011ZM104.064 20.698L105.162 22.156L103.932 23.8H104.502L105.432 22.51L106.356 23.8H106.926L105.696 22.156L106.794 20.698H106.23L105.432 21.802L104.628 20.698H104.064ZM107.116 20.698L108.214 22.156L106.984 23.8H107.554L108.484 22.51L109.408 23.8H109.978L108.748 22.156L109.846 20.698H109.282L108.484 21.802L107.68 20.698H107.116ZM110.169 20.698L111.267 22.156L110.037 23.8H110.607L111.537 22.51L112.461 23.8H113.031L111.801 22.156L112.899 20.698H112.335L111.537 21.802L110.733 20.698H110.169ZM113.222 20.698L114.32 22.156L113.09 23.8H113.66L114.59 22.51L115.514 23.8H116.084L114.854 22.156L115.952 20.698H115.388L114.59 21.802L113.786 20.698H113.222Z" fill="black"/>
<rect x="10.8" y="62.4" width="31.2909" height="29.2573" stroke="#F73D31" stroke-opacity="0.4"/>
</g>
<circle cx="84" cy="39" r="16" fill="#355DB4"/>
<path fill-rule="evenodd" clip-rule="evenodd" d="M81 31C81 30.4477 81.4477 30 82 30H86C86.5523 30 87 30.4477 87 31C87 31.5523 86.5523 32 86 32H82C81.4477 32 81 31.5523 81 31ZM75 33C74.4477 33 74 33.4477 74 34V46C74 46.5523 74.4477 47 75 47H93C93.5523 47 94 46.5523 94 46V34C94 33.4477 93.5523 33 93 33H75ZM84 44C86.2091 44 88 42.2091 88 40C88 37.7909 86.2091 36 84 36C81.7909 36 80 37.7909 80 40C80 42.2091 81.7909 44 84 44ZM84 43C85.6569 43 87 41.6569 87 40C87 38.3431 85.6569 37 84 37C82.3431 37 81 38.3431 81 40C81 41.6569 82.3431 43 84 43Z" fill="white"/>
<path d="M35.244 65.232H36.372V66.288H40.944V67.356H36.372V68.628H40.188V72.696H32.004V68.628H35.244V65.232ZM39.048 71.64V69.696H33.132V71.64H39.048ZM31.98 73.092L32.928 73.56C32.496 74.592 31.98 75.48 31.404 76.224L30.468 75.54C31.044 74.856 31.548 74.04 31.98 73.092ZM34.836 73.476C35.076 74.244 35.292 75.084 35.484 75.984L34.332 76.248C34.188 75.288 33.996 74.436 33.768 73.704L34.836 73.476ZM37.332 73.32C37.68 74.136 37.98 75.012 38.244 75.96L37.116 76.224C36.888 75.216 36.6 74.316 36.264 73.536L37.332 73.32ZM39.732 73.056C40.488 74.04 41.064 74.892 41.472 75.624L40.524 76.284C40.104 75.492 39.54 74.604 38.82 73.644L39.732 73.056ZM43.596 66.84H47.412V65.244H48.588V66.84H52.356V67.932H48.588V69.66H53.34V70.764H48.588V74.712H51.144V71.64H52.236V76.26H51.144V75.768H44.868V76.26H43.776V71.64H44.868V74.712H47.412V70.764H42.672V69.66H47.412V67.932H43.596V66.84ZM58.848 65.16H60.024V68.772H64.464V69.876H60.024V74.7H65.388V75.804H54.636V74.7H58.848V65.16ZM67.872 69.876C67.524 70.308 67.152 70.728 66.744 71.136L66.372 69.924C67.596 68.556 68.508 66.972 69.096 65.148L70.176 65.652C69.876 66.552 69.48 67.416 69 68.244V76.26H67.872V69.876ZM70.164 66.6H72.468L72.792 65.148L73.908 65.256C73.812 65.724 73.704 66.168 73.608 66.6H77.064V67.704H73.32C73.2 68.1 73.092 68.472 72.984 68.832H77.556V69.924H72.624C72.456 70.38 72.3 70.8 72.132 71.196H76.908V72.18C76.428 72.948 75.696 73.716 74.688 74.496C75.192 74.76 75.684 75.048 76.152 75.348L75.504 76.332C74.04 75.348 72.528 74.58 70.992 74.016L71.604 73.116C72.324 73.38 73.02 73.68 73.692 73.992C74.532 73.416 75.204 72.84 75.696 72.252H70.656C70.968 71.508 71.256 70.728 71.532 69.924H69.636V68.832H71.88C71.988 68.46 72.096 68.088 72.192 67.704H70.164V66.6ZM83.04 65.832H88.896V66.948H83.04V65.832ZM82.74 68.832H89.412V69.948H87.54V75.036C87.54 75.804 87.108 76.188 86.256 76.188H84.516L84.264 75.072C84.816 75.12 85.356 75.144 85.86 75.144C86.208 75.144 86.388 75.012 86.388 74.76V69.948H82.74V68.832ZM81 65.244L82.044 65.724C81.396 67.044 80.316 68.22 78.78 69.276L78.432 68.136C79.596 67.308 80.448 66.348 81 65.244ZM81.564 67.992L82.596 68.472C82.272 69.12 81.864 69.732 81.372 70.308V76.236H80.256V71.424C79.824 71.796 79.368 72.156 78.864 72.504L78.528 71.376C79.896 70.416 80.916 69.288 81.564 67.992ZM95.52 66.84H97.764V65.172H98.856V66.84H101.148V71.22H98.856V71.412C98.82 72.372 98.664 73.188 98.376 73.86C99.336 74.592 100.452 75 101.7 75.096L101.424 76.152C100.056 76.032 98.868 75.576 97.836 74.784C97.308 75.408 96.54 75.888 95.52 76.248L94.896 75.288C95.88 74.94 96.588 74.52 96.996 74.028C96.456 73.476 95.976 72.84 95.544 72.12L96.396 71.532C96.732 72.108 97.092 72.612 97.488 73.044C97.644 72.564 97.74 72.012 97.764 71.412V71.22H95.52V66.84ZM100.08 70.188V67.872H98.856V70.188H100.08ZM97.764 70.188V67.872H96.564V70.188H97.764ZM93.54 66.672H90.624V65.628H94.692L94.128 70.572H95.004C95.004 73.392 94.872 75.024 94.608 75.456C94.344 75.888 93.78 76.104 92.94 76.104C92.652 76.104 92.34 76.08 92.028 76.056L91.728 75.036C92.184 75.096 92.508 75.132 92.7 75.132C93.276 75.132 93.612 74.964 93.732 74.628C93.852 74.268 93.912 73.26 93.912 71.592H90.72L91.284 67.356L92.34 67.416L91.884 70.572H93.036L93.54 66.672ZM93.42 72.408V73.452C92.556 73.716 91.584 73.932 90.492 74.1L90.336 73.008C91.512 72.864 92.544 72.66 93.42 72.408ZM109.836 66.744H106.56V65.628H113.364V66.744H111V69.828H113.196V70.896H111V74.712H113.604V75.828H106.188V74.712H107.316V68.556H108.432V74.712H109.836V66.744ZM104.124 65.256C104.868 65.856 105.516 66.444 106.044 67.032L105.264 67.824C104.796 67.248 104.148 66.648 103.332 66.012L104.124 65.256ZM102.48 68.736H105.228V73.668C105.552 73.38 105.9 73.044 106.272 72.684L106.572 73.896C105.852 74.592 105.084 75.216 104.268 75.768L103.836 74.736C104.028 74.568 104.136 74.364 104.136 74.124V69.828H102.48V68.736ZM119.772 66.828H115.332V65.712H124.884V66.828H120.912V70.008H124.248V71.1H120.912V74.664H125.388V75.78H114.624V74.664H116.412V69.06H117.516V74.664H119.772V66.828ZM126.624 65.568H137.376V66.66H132.648C132.552 67.092 132.432 67.512 132.276 67.92H136.812V76.272H135.708V75.768H128.328V76.272H127.224V67.92H131.124C131.28 67.512 131.4 67.092 131.484 66.66H126.624V65.568ZM128.328 74.712H129.696V68.964H128.328V74.712ZM130.764 74.712H133.236V73.416H130.764V74.712ZM134.304 74.712H135.708V68.964H134.304V74.712ZM130.764 72.444H133.236V71.196H130.764V72.444ZM130.764 70.212H133.236V68.964H130.764V70.212Z" fill="black" fill-opacity="0.85"/>
</svg>
