<svg width="293" height="130" viewBox="0 0 293 130" fill="none" xmlns="http://www.w3.org/2000/svg">
<path fill-rule="evenodd" clip-rule="evenodd" d="M134.802 18.1555V50.8588L119.067 39.4465L134.802 18.1555Z" fill="#25417A"/>
<path fill-rule="evenodd" clip-rule="evenodd" d="M136.113 19.4636V50.8588L150.537 39.4421L136.113 19.4636Z" fill="#BBC1C8"/>
<path fill-rule="evenodd" clip-rule="evenodd" d="M129.82 56.2285L124.971 66.1544C124.971 66.1544 163.489 67.6151 177.586 52.6546C191.682 37.6942 182.422 17.723 161.044 8.12509C139.666 -1.4728 107.756 0.266969 107.756 0.266969C107.756 0.266969 142.913 8.04267 154.623 22.7251C166.332 37.4076 159.068 50.7168 150.537 53.6268C142.005 56.5369 129.82 56.2285 129.82 56.2285Z" fill="#25417A"/>
<path d="M5.64082 122.654V121.505L9.79124 121.498V125.134C9.15408 125.642 8.49688 126.025 7.81962 126.283C7.14237 126.537 6.44729 126.664 5.73439 126.664C4.77198 126.664 3.89645 126.459 3.1078 126.049C2.32361 125.635 1.73101 125.038 1.33 124.258C0.928998 123.478 0.728495 122.607 0.728495 121.645C0.728495 120.691 0.92677 119.802 1.32332 118.978C1.72433 118.149 2.2991 117.535 3.04765 117.134C3.79619 116.733 4.65836 116.532 5.63414 116.532C6.34258 116.532 6.98197 116.648 7.55229 116.88C8.12706 117.107 8.57708 117.425 8.90234 117.835C9.2276 118.245 9.47489 118.78 9.6442 119.439L8.4746 119.76C8.32757 119.261 8.14489 118.869 7.92656 118.584C7.70823 118.299 7.39634 118.071 6.99088 117.902C6.58542 117.728 6.1354 117.642 5.64082 117.642C5.04822 117.642 4.53583 117.733 4.10363 117.916C3.67144 118.094 3.32167 118.33 3.05433 118.624C2.79145 118.918 2.58649 119.241 2.43946 119.593C2.18994 120.199 2.06518 120.856 2.06518 121.565C2.06518 122.438 2.21445 123.169 2.51297 123.757C2.81596 124.345 3.25484 124.782 3.82961 125.067C4.40439 125.352 5.01481 125.495 5.66087 125.495C6.22228 125.495 6.77032 125.388 7.305 125.174C7.83967 124.955 8.24514 124.724 8.52139 124.479V122.654H5.64082Z" fill="black"/>
<path d="M17.1456 126.497V125.454C16.5932 126.256 15.8424 126.657 14.8933 126.657C14.4745 126.657 14.0824 126.577 13.717 126.417C13.3561 126.256 13.0866 126.056 12.9083 125.815C12.7346 125.57 12.612 125.272 12.5408 124.92C12.4917 124.684 12.4672 124.309 12.4672 123.797V119.399H13.6703V123.336C13.6703 123.964 13.6948 124.387 13.7438 124.606C13.8195 124.922 13.9799 125.172 14.225 125.354C14.47 125.532 14.773 125.622 15.1339 125.622C15.4948 125.622 15.8335 125.53 16.1498 125.348C16.4662 125.16 16.6889 124.909 16.8182 124.592C16.9518 124.271 17.0187 123.808 17.0187 123.202V119.399H18.2217V126.497H17.1456Z" fill="black"/>
<path d="M25.683 125.622C25.2375 126 24.8075 126.268 24.3931 126.424C23.9832 126.58 23.5421 126.657 23.0698 126.657C22.2901 126.657 21.6908 126.468 21.272 126.089C20.8531 125.706 20.6437 125.218 20.6437 124.626C20.6437 124.278 20.7217 123.962 20.8776 123.677C21.038 123.387 21.2452 123.155 21.4992 122.982C21.7576 122.808 22.0472 122.676 22.368 122.587C22.6042 122.525 22.9606 122.465 23.4374 122.407C24.4087 122.291 25.1238 122.153 25.5828 121.992C25.5872 121.828 25.5895 121.723 25.5895 121.678C25.5895 121.188 25.4758 120.843 25.2486 120.642C24.9412 120.371 24.4845 120.235 23.8785 120.235C23.3126 120.235 22.8938 120.335 22.622 120.535C22.3547 120.731 22.1564 121.081 22.0272 121.585L20.8509 121.424C20.9578 120.921 21.1338 120.515 21.3789 120.208C21.624 119.896 21.9782 119.658 22.4416 119.493C22.9049 119.324 23.4419 119.239 24.0523 119.239C24.6582 119.239 25.1506 119.31 25.5293 119.453C25.908 119.595 26.1865 119.776 26.3647 119.994C26.543 120.208 26.6677 120.48 26.739 120.809C26.7791 121.014 26.7992 121.384 26.7992 121.919V123.523C26.7992 124.641 26.8237 125.35 26.8727 125.648C26.9261 125.942 27.0286 126.225 27.1801 126.497H25.9236C25.7989 126.248 25.7187 125.956 25.683 125.622ZM25.5828 122.935C25.1461 123.113 24.4911 123.265 23.6178 123.389C23.1233 123.461 22.7735 123.541 22.5685 123.63C22.3636 123.719 22.2054 123.85 22.094 124.024C21.9826 124.194 21.9269 124.383 21.9269 124.592C21.9269 124.913 22.0472 125.18 22.2878 125.394C22.5329 125.608 22.8894 125.715 23.3572 125.715C23.8206 125.715 24.2327 125.615 24.5936 125.414C24.9545 125.209 25.2196 124.931 25.389 124.579C25.5182 124.307 25.5828 123.906 25.5828 123.376V122.935Z" fill="black"/>
<path d="M29.6088 126.497V119.399H30.6916V120.408C31.2129 119.629 31.9659 119.239 32.9506 119.239C33.3783 119.239 33.7704 119.317 34.1268 119.473C34.4877 119.624 34.7573 119.825 34.9355 120.074C35.1138 120.324 35.2385 120.62 35.3098 120.963C35.3544 121.186 35.3766 121.576 35.3766 122.133V126.497H34.1736V122.18C34.1736 121.689 34.1268 121.324 34.0333 121.083C33.9397 120.838 33.7726 120.645 33.532 120.502C33.2959 120.355 33.0174 120.281 32.6966 120.281C32.1842 120.281 31.7409 120.444 31.3666 120.769C30.9968 121.095 30.8119 121.712 30.8119 122.621V126.497H29.6088Z" fill="black"/>
<path d="M37.9457 127.085L39.1153 127.259C39.1643 127.62 39.3002 127.883 39.523 128.048C39.8215 128.27 40.2292 128.382 40.7461 128.382C41.303 128.382 41.733 128.27 42.036 128.048C42.339 127.825 42.5439 127.513 42.6509 127.112C42.7132 126.867 42.7422 126.352 42.7377 125.568C42.212 126.187 41.557 126.497 40.7728 126.497C39.797 126.497 39.0418 126.145 38.5071 125.441C37.9724 124.737 37.7051 123.893 37.7051 122.908C37.7051 122.231 37.8276 121.607 38.0727 121.037C38.3178 120.462 38.672 120.019 39.1354 119.707C39.6032 119.395 40.1512 119.239 40.7795 119.239C41.6171 119.239 42.3078 119.577 42.8514 120.255V119.399H43.9608V125.535C43.9608 126.64 43.8472 127.422 43.6199 127.881C43.3972 128.344 43.0407 128.709 42.5506 128.977C42.0649 129.244 41.4657 129.378 40.7528 129.378C39.9062 129.378 39.2222 129.186 38.7009 128.803C38.1796 128.424 37.9279 127.852 37.9457 127.085ZM38.9415 122.821C38.9415 123.752 39.1265 124.432 39.4963 124.86C39.8661 125.287 40.3295 125.501 40.8864 125.501C41.4389 125.501 41.9023 125.29 42.2766 124.866C42.6509 124.439 42.838 123.77 42.838 122.861C42.838 121.992 42.6442 121.337 42.2565 120.896C41.8733 120.455 41.41 120.235 40.8664 120.235C40.3317 120.235 39.8772 120.453 39.503 120.89C39.1287 121.322 38.9415 121.966 38.9415 122.821Z" fill="black"/>
<path d="M51.3286 126.497V125.601C50.8786 126.305 50.2169 126.657 49.3436 126.657C48.7777 126.657 48.2564 126.502 47.7797 126.19C47.3074 125.878 46.9398 125.443 46.6769 124.886C46.4185 124.325 46.2893 123.681 46.2893 122.955C46.2893 122.246 46.4073 121.605 46.6435 121.03C46.8796 120.451 47.2339 120.007 47.7062 119.7C48.1785 119.393 48.7064 119.239 49.2901 119.239C49.7179 119.239 50.0988 119.33 50.433 119.513C50.7672 119.691 51.039 119.925 51.2484 120.215V116.699H52.4447V126.497H51.3286ZM47.5257 122.955C47.5257 123.864 47.7173 124.543 48.1005 124.993C48.4837 125.443 48.9359 125.668 49.4572 125.668C49.983 125.668 50.4285 125.454 50.7939 125.027C51.1637 124.595 51.3486 123.937 51.3486 123.055C51.3486 122.084 51.1615 121.371 50.7872 120.916C50.413 120.462 49.9518 120.235 49.4038 120.235C48.8691 120.235 48.4213 120.453 48.0604 120.89C47.7039 121.326 47.5257 122.015 47.5257 122.955Z" fill="black"/>
<path d="M54.8333 122.948C54.8333 121.634 55.1987 120.66 55.9294 120.028C56.5398 119.502 57.2839 119.239 58.1617 119.239C59.1375 119.239 59.935 119.56 60.5544 120.201C61.1737 120.838 61.4834 121.721 61.4834 122.848C61.4834 123.761 61.3452 124.481 61.069 125.007C60.7972 125.528 60.3984 125.933 59.8726 126.223C59.3513 126.513 58.781 126.657 58.1617 126.657C57.1681 126.657 56.3638 126.339 55.749 125.702C55.1385 125.065 54.8333 124.147 54.8333 122.948ZM56.0698 122.948C56.0698 123.857 56.268 124.539 56.6646 124.993C57.0611 125.443 57.5602 125.668 58.1617 125.668C58.7587 125.668 59.2555 125.441 59.6521 124.987C60.0486 124.532 60.2469 123.839 60.2469 122.908C60.2469 122.03 60.0464 121.366 59.6454 120.916C59.2489 120.462 58.7543 120.235 58.1617 120.235C57.5602 120.235 57.0611 120.46 56.6646 120.91C56.268 121.36 56.0698 122.039 56.0698 122.948Z" fill="black"/>
<path d="M63.8386 126.497V119.399H64.9213V120.408C65.4426 119.629 66.1956 119.239 67.1803 119.239C67.608 119.239 68.0001 119.317 68.3566 119.473C68.7175 119.624 68.987 119.825 69.1653 120.074C69.3435 120.324 69.4682 120.62 69.5395 120.963C69.5841 121.186 69.6064 121.576 69.6064 122.133V126.497H68.4033V122.18C68.4033 121.689 68.3566 121.324 68.263 121.083C68.1694 120.838 68.0023 120.645 67.7617 120.502C67.5256 120.355 67.2471 120.281 66.9263 120.281C66.4139 120.281 65.9706 120.444 65.5963 120.769C65.2265 121.095 65.0416 121.712 65.0416 122.621V126.497H63.8386Z" fill="black"/>
<path d="M72.1754 127.085L73.345 127.259C73.394 127.62 73.5299 127.883 73.7527 128.048C74.0513 128.27 74.4589 128.382 74.9758 128.382C75.5327 128.382 75.9627 128.27 76.2657 128.048C76.5687 127.825 76.7736 127.513 76.8806 127.112C76.9429 126.867 76.9719 126.352 76.9675 125.568C76.4417 126.187 75.7867 126.497 75.0025 126.497C74.0267 126.497 73.2715 126.145 72.7368 125.441C72.2022 124.737 71.9348 123.893 71.9348 122.908C71.9348 122.231 72.0574 121.607 72.3024 121.037C72.5475 120.462 72.9017 120.019 73.3651 119.707C73.8329 119.395 74.381 119.239 75.0092 119.239C75.8469 119.239 76.5375 119.577 77.0811 120.255V119.399H78.1905V125.535C78.1905 126.64 78.0769 127.422 77.8497 127.881C77.6269 128.344 77.2704 128.709 76.7803 128.977C76.2947 129.244 75.6954 129.378 74.9825 129.378C74.1359 129.378 73.452 129.186 72.9307 128.803C72.4094 128.424 72.1576 127.852 72.1754 127.085ZM73.1713 122.821C73.1713 123.752 73.3562 124.432 73.726 124.86C74.0958 125.287 74.5592 125.501 75.1161 125.501C75.6686 125.501 76.132 125.29 76.5063 124.866C76.8806 124.439 77.0677 123.77 77.0677 122.861C77.0677 121.992 76.8739 121.337 76.4863 120.896C76.1031 120.455 75.6397 120.235 75.0961 120.235C74.5614 120.235 74.1069 120.453 73.7327 120.89C73.3584 121.322 73.1713 121.966 73.1713 122.821Z" fill="black"/>
<path d="M85.4139 123.349L86.637 123.242C86.6949 123.732 86.8286 124.136 87.038 124.452C87.2518 124.764 87.5816 125.018 88.0271 125.214C88.4727 125.405 88.9739 125.501 89.5309 125.501C90.0255 125.501 90.4621 125.428 90.8409 125.281C91.2196 125.134 91.5003 124.933 91.683 124.679C91.8701 124.421 91.9637 124.14 91.9637 123.837C91.9637 123.53 91.8746 123.262 91.6963 123.035C91.5181 122.803 91.224 122.61 90.8141 122.454C90.5512 122.351 89.9698 122.193 89.0697 121.979C88.1697 121.761 87.5392 121.556 87.1783 121.364C86.7105 121.119 86.3607 120.816 86.129 120.455C85.9018 120.09 85.7882 119.682 85.7882 119.232C85.7882 118.738 85.9285 118.276 86.2092 117.849C86.4899 117.417 86.8998 117.089 87.439 116.866C87.9781 116.643 88.5774 116.532 89.2368 116.532C89.9631 116.532 90.6025 116.65 91.155 116.886C91.7119 117.118 92.1397 117.461 92.4382 117.916C92.7367 118.37 92.8971 118.885 92.9194 119.459L91.6763 119.553C91.6094 118.934 91.3822 118.466 90.9946 118.149C90.6114 117.833 90.0433 117.675 89.2903 117.675C88.5061 117.675 87.9336 117.82 87.5726 118.109C87.2162 118.395 87.038 118.74 87.038 119.145C87.038 119.497 87.165 119.787 87.4189 120.014C87.6684 120.241 88.319 120.475 89.3705 120.716C90.4265 120.952 91.1505 121.159 91.5426 121.337C92.1129 121.6 92.534 121.935 92.8058 122.34C93.0776 122.741 93.2135 123.204 93.2135 123.73C93.2135 124.251 93.0642 124.744 92.7657 125.207C92.4672 125.666 92.0372 126.025 91.4758 126.283C90.9188 126.537 90.2906 126.664 89.591 126.664C88.7044 126.664 87.9603 126.535 87.3588 126.277C86.7617 126.018 86.2917 125.63 85.9486 125.114C85.6099 124.592 85.4317 124.004 85.4139 123.349Z" fill="black"/>
<path d="M95.3214 122.948C95.3214 121.634 95.6867 120.66 96.4175 120.028C97.0279 119.502 97.772 119.239 98.6497 119.239C99.6255 119.239 100.423 119.56 101.042 120.201C101.662 120.838 101.971 121.721 101.971 122.848C101.971 123.761 101.833 124.481 101.557 125.007C101.285 125.528 100.886 125.933 100.361 126.223C99.8394 126.513 99.2691 126.657 98.6497 126.657C97.6561 126.657 96.8519 126.339 96.237 125.702C95.6266 125.065 95.3214 124.147 95.3214 122.948ZM96.5578 122.948C96.5578 123.857 96.7561 124.539 97.1526 124.993C97.5492 125.443 98.0482 125.668 98.6497 125.668C99.2468 125.668 99.7436 125.441 100.14 124.987C100.537 124.532 100.735 123.839 100.735 122.908C100.735 122.03 100.534 121.366 100.133 120.916C99.7369 120.462 99.2423 120.235 98.6497 120.235C98.0482 120.235 97.5492 120.46 97.1526 120.91C96.7561 121.36 96.5578 122.039 96.5578 122.948Z" fill="black"/>
<path d="M108.978 126.497V125.454C108.426 126.256 107.675 126.657 106.726 126.657C106.307 126.657 105.915 126.577 105.55 126.417C105.189 126.256 104.919 126.056 104.741 125.815C104.567 125.57 104.445 125.272 104.373 124.92C104.324 124.684 104.3 124.309 104.3 123.797V119.399H105.503V123.336C105.503 123.964 105.527 124.387 105.576 124.606C105.652 124.922 105.813 125.172 106.058 125.354C106.303 125.532 106.606 125.622 106.967 125.622C107.327 125.622 107.666 125.53 107.982 125.348C108.299 125.16 108.522 124.909 108.651 124.592C108.784 124.271 108.851 123.808 108.851 123.202V119.399H110.054V126.497H108.978Z" fill="black"/>
<path d="M115.511 125.421L115.684 126.484C115.346 126.555 115.043 126.591 114.775 126.591C114.339 126.591 114 126.522 113.76 126.383C113.519 126.245 113.35 126.065 113.252 125.842C113.154 125.615 113.105 125.14 113.105 124.419V120.335H112.222V119.399H113.105V117.642L114.301 116.92V119.399H115.511V120.335H114.301V124.485C114.301 124.828 114.321 125.049 114.361 125.147C114.406 125.245 114.475 125.323 114.568 125.381C114.666 125.439 114.804 125.468 114.983 125.468C115.116 125.468 115.292 125.452 115.511 125.421Z" fill="black"/>
<path d="M117.632 126.497V116.699H118.835V120.215C119.396 119.564 120.105 119.239 120.96 119.239C121.486 119.239 121.943 119.344 122.33 119.553C122.718 119.758 122.994 120.043 123.159 120.408C123.328 120.774 123.413 121.304 123.413 121.999V126.497H122.21V121.999C122.21 121.398 122.079 120.961 121.816 120.689C121.557 120.413 121.19 120.275 120.713 120.275C120.357 120.275 120.02 120.368 119.704 120.555C119.392 120.738 119.169 120.988 119.035 121.304C118.902 121.62 118.835 122.057 118.835 122.614V126.497H117.632Z" fill="black"/>
<path d="M131.091 126.497V116.699H134.466C135.228 116.699 135.809 116.746 136.21 116.84C136.772 116.969 137.251 117.203 137.647 117.541C138.164 117.978 138.55 118.537 138.804 119.219C139.062 119.896 139.191 120.671 139.191 121.545C139.191 122.289 139.104 122.948 138.931 123.523C138.757 124.098 138.534 124.574 138.262 124.953C137.99 125.327 137.692 125.624 137.367 125.842C137.046 126.056 136.656 126.219 136.197 126.33C135.743 126.441 135.219 126.497 134.626 126.497H131.091ZM132.387 125.341H134.479C135.125 125.341 135.631 125.281 135.997 125.16C136.366 125.04 136.66 124.871 136.879 124.652C137.186 124.345 137.425 123.933 137.594 123.416C137.768 122.895 137.855 122.264 137.855 121.525C137.855 120.5 137.685 119.713 137.347 119.165C137.012 118.613 136.605 118.243 136.124 118.056C135.776 117.922 135.217 117.855 134.446 117.855H132.387V125.341Z" fill="black"/>
<path d="M141.319 122.948C141.319 121.634 141.685 120.66 142.415 120.028C143.026 119.502 143.77 119.239 144.648 119.239C145.623 119.239 146.421 119.56 147.04 120.201C147.66 120.838 147.969 121.721 147.969 122.848C147.969 123.761 147.831 124.481 147.555 125.007C147.283 125.528 146.884 125.933 146.359 126.223C145.837 126.513 145.267 126.657 144.648 126.657C143.654 126.657 142.85 126.339 142.235 125.702C141.624 125.065 141.319 124.147 141.319 122.948ZM142.556 122.948C142.556 123.857 142.754 124.539 143.15 124.993C143.547 125.443 144.046 125.668 144.648 125.668C145.245 125.668 145.741 125.441 146.138 124.987C146.535 124.532 146.733 123.839 146.733 122.908C146.733 122.03 146.532 121.366 146.131 120.916C145.735 120.462 145.24 120.235 144.648 120.235C144.046 120.235 143.547 120.46 143.15 120.91C142.754 121.36 142.556 122.039 142.556 122.948Z" fill="black"/>
<path d="M150.324 126.497V119.399H151.407V120.408C151.928 119.629 152.681 119.239 153.666 119.239C154.094 119.239 154.486 119.317 154.842 119.473C155.203 119.624 155.473 119.825 155.651 120.074C155.829 120.324 155.954 120.62 156.025 120.963C156.07 121.186 156.092 121.576 156.092 122.133V126.497H154.889V122.18C154.889 121.689 154.842 121.324 154.749 121.083C154.655 120.838 154.488 120.645 154.248 120.502C154.011 120.355 153.733 120.281 153.412 120.281C152.9 120.281 152.456 120.444 152.082 120.769C151.712 121.095 151.527 121.712 151.527 122.621V126.497H150.324Z" fill="black"/>
<path d="M158.661 127.085L159.831 127.259C159.88 127.62 160.016 127.883 160.239 128.048C160.537 128.27 160.945 128.382 161.462 128.382C162.019 128.382 162.449 128.27 162.752 128.048C163.055 127.825 163.26 127.513 163.366 127.112C163.429 126.867 163.458 126.352 163.453 125.568C162.928 126.187 162.273 126.497 161.488 126.497C160.513 126.497 159.757 126.145 159.223 125.441C158.688 124.737 158.421 123.893 158.421 122.908C158.421 122.231 158.543 121.607 158.788 121.037C159.033 120.462 159.388 120.019 159.851 119.707C160.319 119.395 160.867 119.239 161.495 119.239C162.333 119.239 163.023 119.577 163.567 120.255V119.399H164.676V125.535C164.676 126.64 164.563 127.422 164.336 127.881C164.113 128.344 163.756 128.709 163.266 128.977C162.781 129.244 162.181 129.378 161.468 129.378C160.622 129.378 159.938 129.186 159.417 128.803C158.895 128.424 158.643 127.852 158.661 127.085ZM159.657 122.821C159.657 123.752 159.842 124.432 160.212 124.86C160.582 125.287 161.045 125.501 161.602 125.501C162.155 125.501 162.618 125.29 162.992 124.866C163.366 124.439 163.554 123.77 163.554 122.861C163.554 121.992 163.36 121.337 162.972 120.896C162.589 120.455 162.126 120.235 161.582 120.235C161.047 120.235 160.593 120.453 160.219 120.89C159.844 121.322 159.657 121.966 159.657 122.821Z" fill="black"/>
<path d="M167.439 126.497V116.699H168.642V120.215C169.204 119.564 169.912 119.239 170.768 119.239C171.293 119.239 171.75 119.344 172.138 119.553C172.525 119.758 172.802 120.043 172.966 120.408C173.136 120.774 173.22 121.304 173.22 121.999V126.497H172.017V121.999C172.017 121.398 171.886 120.961 171.623 120.689C171.365 120.413 170.997 120.275 170.52 120.275C170.164 120.275 169.828 120.368 169.511 120.555C169.199 120.738 168.976 120.988 168.843 121.304C168.709 121.62 168.642 122.057 168.642 122.614V126.497H167.439Z" fill="black"/>
<path d="M180.628 125.622C180.183 126 179.753 126.268 179.338 126.424C178.929 126.58 178.487 126.657 178.015 126.657C177.235 126.657 176.636 126.468 176.217 126.089C175.798 125.706 175.589 125.218 175.589 124.626C175.589 124.278 175.667 123.962 175.823 123.677C175.983 123.387 176.191 123.155 176.445 122.982C176.703 122.808 176.993 122.676 177.313 122.587C177.55 122.525 177.906 122.465 178.383 122.407C179.354 122.291 180.069 122.153 180.528 121.992C180.533 121.828 180.535 121.723 180.535 121.678C180.535 121.188 180.421 120.843 180.194 120.642C179.886 120.371 179.43 120.235 178.824 120.235C178.258 120.235 177.839 120.335 177.567 120.535C177.3 120.731 177.102 121.081 176.973 121.585L175.796 121.424C175.903 120.921 176.079 120.515 176.324 120.208C176.569 119.896 176.923 119.658 177.387 119.493C177.85 119.324 178.387 119.239 178.998 119.239C179.604 119.239 180.096 119.31 180.475 119.453C180.853 119.595 181.132 119.776 181.31 119.994C181.488 120.208 181.613 120.48 181.684 120.809C181.724 121.014 181.744 121.384 181.744 121.919V123.523C181.744 124.641 181.769 125.35 181.818 125.648C181.871 125.942 181.974 126.225 182.125 126.497H180.869C180.744 126.248 180.664 125.956 180.628 125.622ZM180.528 122.935C180.091 123.113 179.436 123.265 178.563 123.389C178.069 123.461 177.719 123.541 177.514 123.63C177.309 123.719 177.151 123.85 177.039 124.024C176.928 124.194 176.872 124.383 176.872 124.592C176.872 124.913 176.993 125.18 177.233 125.394C177.478 125.608 177.835 125.715 178.303 125.715C178.766 125.715 179.178 125.615 179.539 125.414C179.9 125.209 180.165 124.931 180.334 124.579C180.463 124.307 180.528 123.906 180.528 123.376V122.935Z" fill="black"/>
<path d="M184.561 118.083V116.699H185.764V118.083H184.561ZM184.561 126.497V119.399H185.764V126.497H184.561Z" fill="black"/>
<path d="M193.001 123.349L194.224 123.242C194.282 123.732 194.415 124.136 194.625 124.452C194.839 124.764 195.168 125.018 195.614 125.214C196.059 125.405 196.561 125.501 197.118 125.501C197.612 125.501 198.049 125.428 198.428 125.281C198.806 125.134 199.087 124.933 199.27 124.679C199.457 124.421 199.55 124.14 199.55 123.837C199.55 123.53 199.461 123.262 199.283 123.035C199.105 122.803 198.811 122.61 198.401 122.454C198.138 122.351 197.556 122.193 196.656 121.979C195.756 121.761 195.126 121.556 194.765 121.364C194.297 121.119 193.947 120.816 193.716 120.455C193.488 120.09 193.375 119.682 193.375 119.232C193.375 118.738 193.515 118.276 193.796 117.849C194.077 117.417 194.487 117.089 195.026 116.866C195.565 116.643 196.164 116.532 196.824 116.532C197.55 116.532 198.189 116.65 198.742 116.886C199.299 117.118 199.726 117.461 200.025 117.916C200.323 118.37 200.484 118.885 200.506 119.459L199.263 119.553C199.196 118.934 198.969 118.466 198.581 118.149C198.198 117.833 197.63 117.675 196.877 117.675C196.093 117.675 195.52 117.82 195.159 118.109C194.803 118.395 194.625 118.74 194.625 119.145C194.625 119.497 194.752 119.787 195.006 120.014C195.255 120.241 195.906 120.475 196.957 120.716C198.013 120.952 198.737 121.159 199.129 121.337C199.7 121.6 200.121 121.935 200.392 122.34C200.664 122.741 200.8 123.204 200.8 123.73C200.8 124.251 200.651 124.744 200.352 125.207C200.054 125.666 199.624 126.025 199.062 126.283C198.506 126.537 197.877 126.664 197.178 126.664C196.291 126.664 195.547 126.535 194.945 126.277C194.348 126.018 193.878 125.63 193.535 125.114C193.197 124.592 193.018 124.004 193.001 123.349Z" fill="black"/>
<path d="M205.982 125.421L206.156 126.484C205.818 126.555 205.515 126.591 205.247 126.591C204.811 126.591 204.472 126.522 204.231 126.383C203.991 126.245 203.821 126.065 203.723 125.842C203.625 125.615 203.576 125.14 203.576 124.419V120.335H202.694V119.399H203.576V117.642L204.773 116.92V119.399H205.982V120.335H204.773V124.485C204.773 124.828 204.793 125.049 204.833 125.147C204.877 125.245 204.947 125.323 205.04 125.381C205.138 125.439 205.276 125.468 205.454 125.468C205.588 125.468 205.764 125.452 205.982 125.421Z" fill="black"/>
<path d="M212.963 124.211L214.206 124.365C214.01 125.091 213.647 125.655 213.116 126.056C212.586 126.457 211.909 126.657 211.085 126.657C210.046 126.657 209.222 126.339 208.612 125.702C208.006 125.06 207.703 124.162 207.703 123.008C207.703 121.814 208.01 120.887 208.625 120.228C209.24 119.569 210.037 119.239 211.018 119.239C211.967 119.239 212.742 119.562 213.344 120.208C213.945 120.854 214.246 121.763 214.246 122.935C214.246 123.006 214.244 123.113 214.239 123.256H208.946C208.99 124.035 209.211 124.632 209.607 125.047C210.004 125.461 210.499 125.668 211.091 125.668C211.532 125.668 211.909 125.552 212.221 125.321C212.533 125.089 212.78 124.719 212.963 124.211ZM209.013 122.266H212.976C212.922 121.669 212.771 121.222 212.521 120.923C212.138 120.46 211.641 120.228 211.031 120.228C210.479 120.228 210.013 120.413 209.634 120.783C209.26 121.153 209.053 121.647 209.013 122.266Z" fill="black"/>
<path d="M221.52 124.211L222.763 124.365C222.567 125.091 222.204 125.655 221.674 126.056C221.144 126.457 220.466 126.657 219.642 126.657C218.604 126.657 217.78 126.339 217.169 125.702C216.563 125.06 216.26 124.162 216.26 123.008C216.26 121.814 216.568 120.887 217.182 120.228C217.797 119.569 218.595 119.239 219.575 119.239C220.524 119.239 221.299 119.562 221.901 120.208C222.502 120.854 222.803 121.763 222.803 122.935C222.803 123.006 222.801 123.113 222.797 123.256H217.503C217.548 124.035 217.768 124.632 218.165 125.047C218.561 125.461 219.056 125.668 219.649 125.668C220.09 125.668 220.466 125.552 220.778 125.321C221.09 125.089 221.337 124.719 221.52 124.211ZM217.57 122.266H221.533C221.48 121.669 221.328 121.222 221.079 120.923C220.696 120.46 220.199 120.228 219.589 120.228C219.036 120.228 218.57 120.413 218.192 120.783C217.817 121.153 217.61 121.647 217.57 122.266Z" fill="black"/>
<path d="M225.192 126.497V116.699H226.395V126.497H225.192Z" fill="black"/>
<path d="M241.097 123.062L242.394 123.389C242.122 124.454 241.632 125.267 240.923 125.829C240.219 126.386 239.357 126.664 238.337 126.664C237.281 126.664 236.421 126.45 235.757 126.023C235.097 125.59 234.594 124.967 234.246 124.151C233.903 123.336 233.732 122.46 233.732 121.525C233.732 120.504 233.926 119.615 234.313 118.858C234.705 118.096 235.26 117.519 235.977 117.127C236.699 116.73 237.492 116.532 238.357 116.532C239.337 116.532 240.161 116.782 240.83 117.281C241.498 117.78 241.964 118.481 242.227 119.386L240.95 119.687C240.723 118.974 240.393 118.455 239.961 118.129C239.529 117.804 238.985 117.642 238.33 117.642C237.577 117.642 236.947 117.822 236.439 118.183C235.935 118.544 235.581 119.029 235.376 119.64C235.171 120.246 235.069 120.872 235.069 121.518C235.069 122.351 235.189 123.08 235.429 123.703C235.675 124.323 236.053 124.786 236.566 125.094C237.078 125.401 237.633 125.555 238.23 125.555C238.956 125.555 239.571 125.345 240.074 124.926C240.578 124.508 240.919 123.886 241.097 123.062Z" fill="black"/>
<path d="M244.334 122.948C244.334 121.634 244.7 120.66 245.43 120.028C246.041 119.502 246.785 119.239 247.663 119.239C248.639 119.239 249.436 119.56 250.055 120.201C250.675 120.838 250.984 121.721 250.984 122.848C250.984 123.761 250.846 124.481 250.57 125.007C250.298 125.528 249.899 125.933 249.374 126.223C248.852 126.513 248.282 126.657 247.663 126.657C246.669 126.657 245.865 126.339 245.25 125.702C244.64 125.065 244.334 124.147 244.334 122.948ZM245.571 122.948C245.571 123.857 245.769 124.539 246.166 124.993C246.562 125.443 247.061 125.668 247.663 125.668C248.26 125.668 248.757 125.441 249.153 124.987C249.55 124.532 249.748 123.839 249.748 122.908C249.748 122.03 249.548 121.366 249.146 120.916C248.75 120.462 248.255 120.235 247.663 120.235C247.061 120.235 246.562 120.46 246.166 120.91C245.769 121.36 245.571 122.039 245.571 122.948Z" fill="black"/>
<path d="M253.68 126.497V125.127H255.051V126.497H253.68Z" fill="black"/>
<path d="M258.402 126.497V125.127H259.772V126.497C259.772 127.001 259.683 127.406 259.504 127.713C259.326 128.025 259.043 128.266 258.656 128.435L258.321 127.921C258.575 127.809 258.763 127.644 258.883 127.426C259.003 127.212 259.07 126.903 259.083 126.497H258.402Z" fill="black"/>
<path d="M267.683 126.497V116.699H268.98V125.341H273.806V126.497H267.683Z" fill="black"/>
<path d="M278.767 125.421L278.941 126.484C278.602 126.555 278.299 126.591 278.032 126.591C277.595 126.591 277.257 126.522 277.016 126.383C276.776 126.245 276.606 126.065 276.508 125.842C276.41 125.615 276.361 125.14 276.361 124.419V120.335H275.479V119.399H276.361V117.642L277.558 116.92V119.399H278.767V120.335H277.558V124.485C277.558 124.828 277.578 125.049 277.618 125.147C277.662 125.245 277.731 125.323 277.825 125.381C277.923 125.439 278.061 125.468 278.239 125.468C278.373 125.468 278.549 125.452 278.767 125.421Z" fill="black"/>
<path d="M285.493 126.497V125.601C285.043 126.305 284.382 126.657 283.508 126.657C282.943 126.657 282.421 126.502 281.945 126.19C281.472 125.878 281.105 125.443 280.842 124.886C280.583 124.325 280.454 123.681 280.454 122.955C280.454 122.246 280.572 121.605 280.808 121.03C281.044 120.451 281.399 120.007 281.871 119.7C282.343 119.393 282.871 119.239 283.455 119.239C283.883 119.239 284.264 119.33 284.598 119.513C284.932 119.691 285.204 119.925 285.413 120.215V116.699H286.61V126.497H285.493ZM281.691 122.955C281.691 123.864 281.882 124.543 282.265 124.993C282.649 125.443 283.101 125.668 283.622 125.668C284.148 125.668 284.593 125.454 284.959 125.027C285.329 124.595 285.513 123.937 285.513 123.055C285.513 122.084 285.326 121.371 284.952 120.916C284.578 120.462 284.117 120.235 283.569 120.235C283.034 120.235 282.586 120.453 282.225 120.89C281.869 121.326 281.691 122.015 281.691 122.955Z" fill="black"/>
<path d="M289.787 126.497V125.127H291.157V126.497H289.787Z" fill="black"/>
<path d="M162.532 109.734H166.122V111.528H162.532V109.734Z" fill="black"/>
<path d="M62.2922 109.437H65.8826V111.437H62.2922V109.437Z" fill="black"/>
<path d="M83.3072 109.437H87.31V111.437H83.3072V109.437Z" fill="black"/>
<path d="M285.204 109.997H289.206V111.997H285.204V109.997Z" fill="black"/>
<path d="M209.149 109.497H213.152V111.497H209.149V109.497Z" fill="black"/>
<path d="M153.556 90.8975H157.146V111.528H153.556V90.8975Z" fill="black"/>
<path d="M164.327 90.8975H167.917V111.528H164.327V90.8975Z" fill="black"/>
<path d="M64.2936 96.4365H68.2964V111.437H64.2936V96.4365Z" fill="black"/>
<path d="M47.2814 96.4365H51.2843V111.437H47.2814V96.4365Z" fill="black"/>
<path d="M199.142 97.4971H203.145V111.497H199.142V97.4971Z" fill="black"/>
<path d="M86.3093 98.4365H90.3122V111.437H86.3093V98.4365Z" fill="black"/>
<path d="M286.204 91.4971H290.207V111.997H286.204V91.4971Z" fill="black"/>
<path d="M271.194 99.4971H275.196V107.497H271.194V99.4971Z" fill="black"/>
<path d="M279.199 99.4971H283.202V107.497H279.199V99.4971Z" fill="black"/>
<path d="M212.151 97.4971H216.154V111.497H212.151V97.4971Z" fill="black"/>
<path d="M238.17 91.4971H241.172V100.497H238.17V91.4971Z" fill="black"/>
<path d="M155.351 90.8975H166.122V92.6914H155.351V90.8975Z" fill="black"/>
<path d="M49.2829 96.4365H66.295V98.4365H49.2829V96.4365Z" fill="black"/>
<path d="M77.3029 97.4365H90.3121V99.4365H77.3029V97.4365Z" fill="black"/>
<path d="M270.193 90.4971H290.207V92.4971H270.193V90.4971Z" fill="black"/>
<path d="M202.144 96.4971H216.154V98.4971H202.144V96.4971Z" fill="black"/>
<path d="M230.164 90.4971H241.172V92.4971H230.164V90.4971Z" fill="black"/>
<path d="M202.144 100.497H215.154V102.497H202.144V100.497Z" fill="black"/>
<path d="M230.164 94.4971H241.172V96.4971H230.164V94.4971Z" fill="black"/>
<path d="M202.144 104.497H215.154V106.497H202.144V104.497Z" fill="black"/>
<path d="M230.164 98.4971H241.172V100.497H230.164V98.4971Z" fill="black"/>
<path fill-rule="evenodd" clip-rule="evenodd" d="M147.449 90H150.863L148.89 97.1758H145.477L147.449 90Z" fill="black"/>
<path fill-rule="evenodd" clip-rule="evenodd" d="M147.272 91.7939H152.658V93.5879H147.272V91.7939Z" fill="black"/>
<path fill-rule="evenodd" clip-rule="evenodd" d="M145.477 100.764H152.658V102.558H145.477V100.764Z" fill="black"/>
<path fill-rule="evenodd" clip-rule="evenodd" d="M147.272 109.733H152.658L152.22 111.527H147.272V109.733Z" fill="black"/>
<path fill-rule="evenodd" clip-rule="evenodd" d="M145.477 96.2788H152.658V98.0727H145.477V96.2788Z" fill="black"/>
<path d="M147.272 96.2788H150.863V111.527L147.272 111.527V96.2788Z" fill="black"/>
<path fill-rule="evenodd" clip-rule="evenodd" d="M174.378 90H177.791L175.548 98.0727H172.134L174.378 90Z" fill="black"/>
<path fill-rule="evenodd" clip-rule="evenodd" d="M174.201 91.7939H179.586V93.5879H174.201V91.7939Z" fill="black"/>
<path fill-rule="evenodd" clip-rule="evenodd" d="M172.405 100.764H179.586V102.558H172.405V100.764Z" fill="black"/>
<path fill-rule="evenodd" clip-rule="evenodd" d="M174.201 109.733H179.586L178.906 111.527H174.201V109.733Z" fill="black"/>
<path fill-rule="evenodd" clip-rule="evenodd" d="M173.125 96.2788H179.586V98.0727H172.405L173.125 96.2788Z" fill="black"/>
<path d="M174.201 96.2788H177.791V111.527L174.201 111.527V96.2788Z" fill="black"/>
<path fill-rule="evenodd" clip-rule="evenodd" d="M128.588 96.2803H132.013L129.934 111.529H126.344L128.588 96.2803Z" fill="black"/>
<path fill-rule="evenodd" clip-rule="evenodd" d="M132.627 98.9697H135.528L135.977 103.455H133.076L132.627 98.9697Z" fill="black"/>
<path fill-rule="evenodd" clip-rule="evenodd" d="M132.348 105.259H135.249L135.977 109.734H133.076L132.348 105.259Z" fill="black"/>
<path d="M129.32 96.2803H140.989V98.0742H129.32V96.2803Z" fill="black"/>
<path fill-rule="evenodd" clip-rule="evenodd" d="M126.627 102.559H141.887L141.212 104.353H126.627V102.559Z" fill="black"/>
<path d="M137.399 98.0732L140.989 98.0742V110.631H137.399V98.0732Z" fill="black"/>
<path d="M127.525 109.734H140.989V111.528H127.525V109.734Z" fill="black"/>
<path fill-rule="evenodd" clip-rule="evenodd" d="M130.665 91.7949H141.887L141.212 93.5889H130.218L130.665 91.7949Z" fill="black"/>
<path fill-rule="evenodd" clip-rule="evenodd" d="M120.254 103.455H124.832L123.126 111.528H118.549L120.254 103.455Z" fill="black"/>
<path fill-rule="evenodd" clip-rule="evenodd" d="M119.446 90.8975H123.904L125.73 96.2793H121.272L119.446 90.8975Z" fill="black"/>
<path fill-rule="evenodd" clip-rule="evenodd" d="M119.446 97.1768H123.904L125.73 102.559H121.272L119.446 97.1768Z" fill="black"/>
<path fill-rule="evenodd" clip-rule="evenodd" d="M238.17 105.847L239.771 106.763L242.346 103.789L240.745 102.872L238.17 105.847Z" fill="black"/>
<path fill-rule="evenodd" clip-rule="evenodd" d="M97.9037 103.892H102.392L99.6989 111.067H95.2109L97.9037 103.892Z" fill="black"/>
<path fill-rule="evenodd" clip-rule="evenodd" d="M114.061 103.892H109.573L112.265 111.067H116.754L114.061 103.892Z" fill="black"/>
<path fill-rule="evenodd" clip-rule="evenodd" d="M95.2109 92.2314H115.856L115.271 94.0254H95.2109V92.2314Z" fill="black"/>
<path fill-rule="evenodd" clip-rule="evenodd" d="M99.6989 90.4365H104.187L99.6989 102.108H95.2109L99.6989 90.4365Z" fill="black"/>
<path fill-rule="evenodd" clip-rule="evenodd" d="M97.9037 100.304H114.958L114.374 102.098H97.9037V100.304Z" fill="black"/>
<path d="M104.187 96.7168H107.777V111.965H104.187V96.7168Z" fill="black"/>
<path d="M102.392 110.171H105.982V111.965H102.392V110.171Z" fill="black"/>
<path fill-rule="evenodd" clip-rule="evenodd" d="M25.9571 103.892H30.4452L27.7523 111.067H23.2643L25.9571 103.892Z" fill="black"/>
<path fill-rule="evenodd" clip-rule="evenodd" d="M42.1141 103.892H37.6261L40.3189 111.067H44.8069L42.1141 103.892Z" fill="black"/>
<path fill-rule="evenodd" clip-rule="evenodd" d="M23.2643 92.2314H43.9093L43.3248 94.0254H23.2643V92.2314Z" fill="black"/>
<path fill-rule="evenodd" clip-rule="evenodd" d="M197.141 92.4971H217.786L217.201 94.291H197.141V92.4971Z" fill="black"/>
<path fill-rule="evenodd" clip-rule="evenodd" d="M270.193 95.4971H284.834L284.249 97.291H270.193V95.4971Z" fill="black"/>
<path fill-rule="evenodd" clip-rule="evenodd" d="M272.194 99.4971H283.202L283.202 101.497H272.194V99.4971Z" fill="black"/>
<path fill-rule="evenodd" clip-rule="evenodd" d="M272.194 105.497H283.202L283.202 107.497H272.194V105.497Z" fill="black"/>
<path fill-rule="evenodd" clip-rule="evenodd" d="M47.2814 92.4365H67.9265L67.3419 94.2305H47.2814V92.4365Z" fill="black"/>
<path fill-rule="evenodd" clip-rule="evenodd" d="M52.285 101.437H62.9229L62.3384 103.437H52.285V101.437Z" fill="black"/>
<path fill-rule="evenodd" clip-rule="evenodd" d="M51.7847 105.437H63.3974L62.7925 107.437H51.7847V105.437Z" fill="black"/>
<path fill-rule="evenodd" clip-rule="evenodd" d="M71.2986 92.4365H91.9436L91.3591 94.2305H71.2986V92.4365Z" fill="black"/>
<path fill-rule="evenodd" clip-rule="evenodd" d="M2.27948 92.4365H21.293L20.7547 94.4365H2.27948V92.4365Z" fill="black"/>
<path fill-rule="evenodd" clip-rule="evenodd" d="M27.7523 90.4365H32.2404L27.7523 102.108H23.2643L27.7523 90.4365Z" fill="black"/>
<path fill-rule="evenodd" clip-rule="evenodd" d="M264.175 106.497H260.626L262.387 111.497H265.937L264.175 106.497Z" fill="black"/>
<path d="M249.038 111.497L264.005 111.497L263.837 109.559L249.038 109.497V111.497Z" fill="black"/>
<path fill-rule="evenodd" clip-rule="evenodd" d="M261.411 90.4971H258.211L263.991 102.108H267.191L261.411 90.4971Z" fill="black"/>
<path fill-rule="evenodd" clip-rule="evenodd" d="M251.632 90.4971H254.832L248.375 102.108H245.175L251.632 90.4971Z" fill="black"/>
<path fill-rule="evenodd" clip-rule="evenodd" d="M253.368 99.4971H257.699L251.437 111.497H247.106L253.368 99.4971Z" fill="black"/>
<path fill-rule="evenodd" clip-rule="evenodd" d="M202.629 90.4971H207.118L200.643 102.497H196.155L202.629 90.4971Z" fill="black"/>
<path fill-rule="evenodd" clip-rule="evenodd" d="M25.9572 100.304H43.0117L42.4272 102.098H25.9572V100.304Z" fill="black"/>
<path d="M32.2404 96.7168H35.8309V111.965H32.2404V96.7168Z" fill="black"/>
<path d="M30.4452 110.171H34.0356V111.965H30.4452V110.171Z" fill="black"/>
<path fill-rule="evenodd" clip-rule="evenodd" d="M128.347 90H132.013L130.293 95.3818H126.627L128.347 90Z" fill="black"/>
<path fill-rule="evenodd" clip-rule="evenodd" d="M181.382 90.8975H184.074L183.177 98.0732H180.484L181.382 90.8975Z" fill="black"/>
<path fill-rule="evenodd" clip-rule="evenodd" d="M225.712 91.4971H228.405L227.353 98.4971L229.045 105.997H226.352L224.66 98.4971L225.712 91.4971Z" fill="black"/>
<path fill-rule="evenodd" clip-rule="evenodd" d="M82.3064 90.4365H80.0548L81.0556 93.4365H83.3072L82.3064 90.4365Z" fill="black"/>
<path fill-rule="evenodd" clip-rule="evenodd" d="M56.538 99.4365H54.2864L55.037 102.437H57.2886L56.538 99.4365Z" fill="black"/>
<path fill-rule="evenodd" clip-rule="evenodd" d="M58.7896 99.4365H61.0413L59.5402 102.437H57.2886L58.7896 99.4365Z" fill="black"/>
<path fill-rule="evenodd" clip-rule="evenodd" d="M12.5368 90.4365H10.2852L11.0357 93.4365H13.2873L12.5368 90.4365Z" fill="black"/>
<path fill-rule="evenodd" clip-rule="evenodd" d="M182.279 91.7949H193.05L192.682 93.5889H182.279V91.7949Z" fill="black"/>
<path d="M228.655 90.4971H222.159V92.291H228.214L228.655 90.4971Z" fill="black"/>
<path fill-rule="evenodd" clip-rule="evenodd" d="M227.977 104.203L224.793 104.203L225.162 105.997L227.977 105.997V104.203Z" fill="black"/>
<path fill-rule="evenodd" clip-rule="evenodd" d="M180.484 99.8672H193.05L192.682 101.661H180.484V99.8672Z" fill="black"/>
<path d="M184.972 90H188.562V104.352H184.972V90Z" fill="black"/>
<path d="M55.2872 90.4365H59.29V97.4365H55.2872V90.4365Z" fill="black"/>
<path fill-rule="evenodd" clip-rule="evenodd" d="M185.612 100.765L188.562 102.559L183.295 111.528H179.586L185.612 100.765Z" fill="black"/>
<path fill-rule="evenodd" clip-rule="evenodd" d="M184.907 100.502H188.803L193.05 111.529H189.154L184.907 100.502Z" fill="black"/>
<path fill-rule="evenodd" clip-rule="evenodd" d="M234.167 100.497H237.276L243.28 111.497H240.171L234.167 100.497Z" fill="black"/>
<path fill-rule="evenodd" clip-rule="evenodd" d="M156.954 94.4854H159.828L164.712 107.94H161.815L156.954 94.4854Z" fill="black"/>
<path fill-rule="evenodd" clip-rule="evenodd" d="M164.428 94.4854H161.424L156.873 107.94H159.907L164.428 94.4854Z" fill="black"/>
<path d="M157.146 94.4854H158.616V95.8209H157.146V94.4854Z" fill="black"/>
<path d="M162.474 94.4854H164.327V95.8209H162.474V94.4854Z" fill="black"/>
<path d="M162.532 106.146H164.327V107.94H162.532V106.146Z" fill="black"/>
<path d="M156.248 106.146H158.044V107.94H156.248V106.146Z" fill="black"/>
<path fill-rule="evenodd" clip-rule="evenodd" d="M2.27948 92.4365H6.7525L4.72089 111.437H0.247864L2.27948 92.4365Z" fill="black"/>
<path fill-rule="evenodd" clip-rule="evenodd" d="M76.8327 92.4365H80.3654L76.8327 111.437H73.3L76.8327 92.4365Z" fill="black"/>
<path d="M55.2872 102.437H59.29V111.437H55.2872V102.437Z" fill="black"/>
<path d="M221.158 90.4971H224.16V111.497H221.158V90.4971Z" fill="black"/>
<path d="M229.664 90.4971H233.257V111.497H229.664V90.4971Z" fill="black"/>
<path fill-rule="evenodd" clip-rule="evenodd" d="M235.744 107.997L236.877 109.939L233.242 111.498L230.742 111.497L230.24 110.636V110.357L235.744 107.997Z" fill="black"/>
</svg>
