<svg width="22" height="22" viewBox="0 0 22 22" fill="none" xmlns="http://www.w3.org/2000/svg">
<g clip-path="url(#clip0_1937_7870)">
<path d="M22 0H0V22H22V0Z" fill="white" fill-opacity="0.01"/>
<path d="M7.04166 5.95833C7.04166 3.77221 8.81387 2 11 2C13.1861 2 14.9583 3.77221 14.9583 5.95833C14.9583 8.14446 13.1861 9.91667 11 9.91667C8.81387 9.91667 7.04166 8.14446 7.04166 5.95833Z" fill="#C8C9CC"/>
<path d="M8.58392 12.0833H13.4161C14.4151 12.0833 15.2106 12.0833 15.8527 12.1358C16.5105 12.1895 17.0729 12.302 17.5884 12.5647C18.4195 12.9881 19.0952 13.6638 19.5186 14.4949C19.7813 15.0104 19.8938 15.5729 19.9476 16.2307C20 16.8727 20 17.6683 20 18.6672V19.25C20 19.6642 19.6642 20 19.25 20H2.75C2.33579 20 2 19.6642 2 19.25V18.6672C1.99999 17.6682 1.99999 16.8727 2.05245 16.2307C2.10619 15.5729 2.21872 15.0104 2.48139 14.4949C2.90482 13.6638 3.58049 12.9882 4.41155 12.5647C4.92707 12.302 5.48955 12.1895 6.14735 12.1358C6.78939 12.0833 7.58493 12.0833 8.58392 12.0833Z" fill="#C8C9CC"/>
</g>
<defs>
<clipPath id="clip0_1937_7870">
<rect width="22" height="22" fill="white"/>
</clipPath>
</defs>
</svg>
