<svg width="48" height="48" viewBox="0 0 48 48" fill="none" xmlns="http://www.w3.org/2000/svg">
<rect width="48" height="48" rx="10" fill="#C4C4C4"/>
<rect width="48" height="48" rx="10" fill="#F3883B"/>
<path d="M30.7884 26.0286C34.269 26.0286 37.0909 28.8506 37.0909 32.3311C37.0909 35.8123 34.269 38.6336 30.7884 38.6336C27.3079 38.6336 24.486 35.8123 24.486 32.3311C24.486 28.8506 27.3079 26.0286 30.7884 26.0286ZM27.3376 9.66028C27.3647 9.66026 27.3911 9.66915 27.4127 9.68559C27.4343 9.70203 27.4499 9.72511 27.4571 9.75127L27.4614 9.78407V16.6077C27.4615 16.6348 27.4705 16.661 27.4869 16.6825C27.5033 16.7039 27.5263 16.7194 27.5524 16.7266L27.5852 16.7315H35.0761C35.1032 16.732 35.1293 16.7414 35.1506 16.7581C35.1718 16.7749 35.187 16.7982 35.1937 16.8244L35.1981 16.8572L35.0495 26.1419C33.7374 25.1025 32.112 24.5381 30.4381 24.5406C26.3293 24.5406 22.9979 27.872 22.9979 31.9808C22.9979 33.6564 23.5513 35.202 24.4853 36.4455H12.2852C11.9867 36.447 11.6986 36.3359 11.4784 36.1343C11.2582 35.9327 11.1221 35.6555 11.0974 35.3579L11.0943 35.2657L11.0936 11.1483C11.0936 10.5225 11.855 9.7296 12.4987 9.66461L12.5817 9.66028H27.3376ZM30.5291 28.3065L30.4919 28.3399L27.1426 31.9566C27.1127 31.9888 27.0919 32.0284 27.0824 32.0713C27.0729 32.1142 27.0749 32.1589 27.0883 32.2007C27.1018 32.2425 27.1261 32.2801 27.1588 32.3094C27.1915 32.3387 27.2314 32.3588 27.2745 32.3676L27.324 32.3726H29.8897V35.6656C29.8895 35.7382 29.9149 35.8086 29.9614 35.8644C30.0079 35.9202 30.0726 35.9578 30.1441 35.9707L30.1998 35.9757H31.1468C31.2193 35.9757 31.2894 35.9503 31.3451 35.904C31.4007 35.8576 31.4383 35.7932 31.4514 35.7219L31.4563 35.6662V32.372L34.0226 32.3726C34.0665 32.3726 34.1096 32.3609 34.1474 32.3387C34.1853 32.3166 34.2166 32.2848 34.2382 32.2465C34.2597 32.2083 34.2707 32.1651 34.27 32.1212C34.2693 32.0773 34.257 32.0344 34.2343 31.9969L34.2046 31.9566L30.8553 28.3399L30.8417 28.3263C30.7998 28.2875 30.7459 28.2643 30.6889 28.2607C30.6319 28.2571 30.5755 28.2733 30.5291 28.3065ZM23.6249 23.445H15.793L15.6444 23.4549C15.3696 23.4933 15.1195 23.6343 14.9445 23.8497C14.7696 24.0651 14.6828 24.3388 14.7016 24.6157C14.7205 24.8926 14.8436 25.152 15.0461 25.3417C15.2486 25.5314 15.5155 25.6373 15.793 25.6381H23.6249L23.7735 25.6282C24.0483 25.5898 24.2984 25.4487 24.4734 25.2333C24.6483 25.0179 24.7351 24.7442 24.7163 24.4674C24.6974 24.1905 24.5744 23.9311 24.3718 23.7414C24.1693 23.5517 23.9024 23.4458 23.6249 23.445ZM29.1073 18.7457H15.793L15.6444 18.7556C15.3696 18.7939 15.1195 18.935 14.9445 19.1504C14.7696 19.3658 14.6828 19.6395 14.7016 19.9164C14.7205 20.1932 14.8436 20.4527 15.0461 20.6424C15.2486 20.8321 15.5155 20.938 15.793 20.9388H29.1073L29.2558 20.9289C29.5307 20.8905 29.7807 20.7494 29.9557 20.534C30.1306 20.3186 30.2174 20.0449 30.1986 19.7681C30.1798 19.4912 30.0567 19.2318 29.8542 19.0421C29.6517 18.8524 29.3848 18.7465 29.1073 18.7457ZM28.6938 9.88187C28.7053 9.87036 28.7189 9.86123 28.734 9.855C28.749 9.84877 28.7651 9.84557 28.7814 9.84557C28.7976 9.84557 28.8138 9.84877 28.8288 9.855C28.8438 9.86123 28.8575 9.87036 28.869 9.88187L34.3736 15.3351C34.391 15.3523 34.4028 15.3744 34.4077 15.3984C34.4126 15.4223 34.4102 15.4472 34.401 15.4699C34.3917 15.4926 34.3759 15.512 34.3556 15.5256C34.3353 15.5393 34.3114 15.5467 34.2869 15.5468H28.6579V9.96977C28.6579 9.93708 28.6708 9.9057 28.6938 9.88249V9.88187Z" fill="white"/>
</svg>
