<svg width="22" height="22" viewBox="0 0 22 22" fill="none" xmlns="http://www.w3.org/2000/svg">
<path d="M8.08333 2.29167C8.08333 1.87745 7.74755 1.54167 7.33333 1.54167C6.91912 1.54167 6.58333 1.87745 6.58333 2.29167V2.91667H3.20833C2.28786 2.91667 1.54167 3.66286 1.54167 4.58333V18.7917C1.54167 19.7122 2.28787 20.4583 3.20833 20.4583H18.7917C19.7122 20.4583 20.4583 19.7122 20.4583 18.7917V4.58333C20.4583 3.66287 19.7122 2.91667 18.7917 2.91667H15.4167V2.29167C15.4167 1.87745 15.0809 1.54167 14.6667 1.54167C14.2525 1.54167 13.9167 1.87745 13.9167 2.29167V2.91667H8.08333V2.29167ZM13.9167 5.95833C13.9167 6.37255 14.2525 6.70833 14.6667 6.70833C15.0809 6.70833 15.4167 6.37255 15.4167 5.95833V4.41667H18.7917C18.8837 4.41667 18.9583 4.49128 18.9583 4.58333V7.95833H3.04167V4.58333C3.04167 4.49129 3.11628 4.41667 3.20833 4.41667H6.58333V5.95833C6.58333 6.37255 6.91912 6.70833 7.33333 6.70833C7.74755 6.70833 8.08333 6.37255 8.08333 5.95833V4.41667H13.9167V5.95833ZM16.1137 11.9887L10.6137 17.4887C10.473 17.6293 10.2822 17.7083 10.0833 17.7083C9.88442 17.7083 9.69365 17.6293 9.553 17.4887L6.803 14.7387C6.51011 14.4458 6.51011 13.9709 6.803 13.678C7.0959 13.3851 7.57077 13.3851 7.86366 13.678L10.0833 15.8977L15.053 10.928C15.3459 10.6351 15.8208 10.6351 16.1137 10.928C16.4066 11.2209 16.4066 11.6958 16.1137 11.9887Z" fill="#C8C9CC"/>
</svg>
