<svg width="42" height="42" viewBox="0 0 42 42" fill="none" xmlns="http://www.w3.org/2000/svg">
<g clip-path="url(#clip0_1916_7780)">
<path d="M23.772 20.9832C23.2932 20.9832 22.813 21.427 22.813 21.9744C22.813 22.4196 23.2918 22.8648 23.772 22.8648C24.4902 22.8648 25.004 22.4196 25.004 21.9744C25.004 21.4284 24.4902 20.9832 23.772 20.9832ZM20.6234 16.3632C21.3766 16.3632 21.8554 15.8844 21.8554 15.1662C21.8554 14.413 21.3766 13.9692 20.6234 13.9692C19.9052 13.9692 19.2206 14.413 19.2206 15.1662C19.2206 15.8844 19.9052 16.3632 20.6234 16.3632ZM21 0C9.4024 0 0 9.4024 0 21C0 32.5976 9.4024 42 21 42C32.5976 42 42 32.5976 42 21C42 9.4024 32.5976 0 21 0ZM17.031 26.32C15.7654 26.32 14.8414 26.1156 13.643 25.774L10.1878 27.5184L11.1818 24.5756C8.7514 22.8648 7.3136 20.7088 7.3136 18.074C7.3136 13.4218 11.6942 9.863 17.031 9.863C21.7532 9.863 25.9616 12.6686 26.782 16.639C26.4781 16.5743 26.1687 16.5396 25.858 16.5354C21.2058 16.5354 17.612 20.0256 17.612 24.234C17.612 24.9522 17.7156 25.6018 17.8864 26.2864C17.6027 26.3145 17.3175 26.3257 17.0324 26.32H17.031ZM31.2984 29.673L31.983 32.137L29.3832 30.667C28.3906 30.8714 27.433 31.1794 26.4404 31.1794C21.8554 31.1794 18.228 28.0308 18.228 24.1304C18.228 20.23 21.8554 17.0828 26.4404 17.0828C30.786 17.0828 34.6864 20.23 34.6864 24.1304C34.6864 26.32 33.215 28.2702 31.2984 29.6744V29.673ZM13.8488 13.9692C13.1306 13.9692 12.3788 14.413 12.3788 15.1662C12.3788 15.8844 13.1306 16.3646 13.8488 16.3646C14.5348 16.3646 15.0808 15.8844 15.0808 15.1662C15.0808 14.413 14.5348 13.9692 13.8488 13.9692ZM29.1438 20.9832C28.63 20.9832 28.1848 21.427 28.1848 21.9744C28.1848 22.4196 28.63 22.8648 29.1438 22.8648C29.827 22.8648 30.3408 22.4196 30.3408 21.9744C30.3408 21.4284 29.827 20.9832 29.1438 20.9832Z" fill="#3AC275"/>
</g>
<defs>
<clipPath id="clip0_1916_7780">
<rect width="42" height="42" fill="white"/>
</clipPath>
</defs>
</svg>
